<svg xmlns="http://www.w3.org/2000/svg" width="2600" height="1900" viewBox="0 0 2600 1900" font-family="Arial, Helvetica, sans-serif">
<style>text { font-family: Arial, Helvetica, sans-serif; letter-spacing: normal; word-spacing: normal; text-rendering: optimizeLegibility; font-kerning: normal; }</style>
<style>text { font-family: Arial, Helvetica, sans-serif; letter-spacing: normal; word-spacing: normal; text-rendering: optimizeLegibility; font-kerning: normal; }</style>
<rect width="2600" height="1900" fill="#020617" />
<rect x="60" y="40" width="2480" height="130" rx="30" fill="#111827" stroke="#334155" stroke-width="2" />
<text x="98" y="92" fill="#ffffff" font-size="34" font-weight="bold">Query Lock Analysis</text>
<text x="100" y="128" fill="#cbd5e1" font-size="17">Scenario-driven Infrastructure Operations Portfolio</text>
<rect x="1900" y="72" width="270" height="38" rx="19" fill="#020617" stroke="#334155" stroke-width="1" />
<text x="2035" y="97" fill="#94a3b8" font-size="13" text-anchor="middle" font-weight="bold">level-2-correlation</text>
<rect x="2200" y="72" width="280" height="38" rx="19" fill="#020617" stroke="#334155" stroke-width="1" />
<text x="2340" y="97" fill="#94a3b8" font-size="13" text-anchor="middle" font-weight="bold"></text>
<rect x="80" y="220" width="1840" height="220" rx="28" fill="#1e293b" stroke="#2563eb" stroke-width="3" />
<rect x="80" y="220" width="14" height="220" rx="7" fill="#2563eb" />
<text x="114" y="262" fill="#ffffff" font-size="24" font-weight="bold">Signal Domain</text>
<text x="114" y="290" fill="#cbd5e1" font-size="15">health status; availability signal; latency; error indicator; event log; metric threshold
</text>
<rect x="1650" y="246" width="220" height="38" rx="19" fill="#020617" stroke="#2563eb" stroke-width="2" />
<text x="1760" y="271" fill="#2563eb" font-size="13" text-anchor="middle" font-weight="bold">MULTI-SIGNAL</text>
<rect x="114" y="312" width="540" height="112" rx="22" fill="#111827" stroke="#334155" stroke-width="2" />
<circle cx="152" cy="352" r="22" fill="#020617" stroke="#60a5fa" stroke-width="2" />
<circle cx="152" cy="352" r="7" fill="#60a5fa" />
<circle cx="152" cy="352" r="14" fill="none" stroke="#60a5fa" stroke-width="2" opacity="0.35" />
<text x="186" y="344" fill="#ffffff" font-size="16" font-weight="bold">Primary Signal</text>
<text x="186" y="370" fill="#cbd5e1" font-size="10">health status; availability </text>
<text x="186" y="396" fill="#94a3b8" font-size="10">signal</text>
<rect x="536" y="388" width="96" height="22" rx="11" fill="#020617" stroke="#60a5fa" stroke-width="1" />
<text x="584" y="404" fill="#60a5fa" font-size="10" text-anchor="middle" font-weight="bold">Observed</text>
<rect x="678" y="312" width="540" height="112" rx="22" fill="#111827" stroke="#334155" stroke-width="2" />
<circle cx="716" cy="352" r="22" fill="#020617" stroke="#38bdf8" stroke-width="2" />
<circle cx="716" cy="352" r="7" fill="#38bdf8" />
<circle cx="716" cy="352" r="14" fill="none" stroke="#38bdf8" stroke-width="2" opacity="0.35" />
<text x="750" y="344" fill="#ffffff" font-size="16" font-weight="bold">Related Signal</text>
<text x="750" y="370" fill="#cbd5e1" font-size="10">Additional dependency signal</text>
<text x="750" y="396" fill="#94a3b8" font-size="10">signal</text>
<rect x="1100" y="388" width="96" height="22" rx="11" fill="#020617" stroke="#38bdf8" stroke-width="1" />
<text x="1148" y="404" fill="#38bdf8" font-size="10" text-anchor="middle" font-weight="bold">Collected</text>
<rect x="1242" y="312" width="540" height="112" rx="22" fill="#111827" stroke="#334155" stroke-width="2" />
<circle cx="1280" cy="352" r="22" fill="#020617" stroke="#818cf8" stroke-width="2" />
<circle cx="1280" cy="352" r="7" fill="#818cf8" />
<circle cx="1280" cy="352" r="14" fill="none" stroke="#818cf8" stroke-width="2" opacity="0.35" />
<text x="1314" y="344" fill="#ffffff" font-size="16" font-weight="bold">Component Scope</text>
<text x="1314" y="370" fill="#cbd5e1" font-size="10">Query Workload</text>
<text x="1314" y="396" fill="#94a3b8" font-size="10">scope</text>
<rect x="1664" y="388" width="96" height="22" rx="11" fill="#020617" stroke="#818cf8" stroke-width="1" />
<text x="1712" y="404" fill="#818cf8" font-size="10" text-anchor="middle" font-weight="bold">Mapped</text>
<rect x="80" y="480" width="1840" height="280" rx="28" fill="#1e293b" stroke="#7c3aed" stroke-width="3" />
<rect x="80" y="480" width="14" height="280" rx="7" fill="#7c3aed" />
<text x="114" y="522" fill="#ffffff" font-size="24" font-weight="bold">Correlation Platform</text>
<text x="114" y="550" fill="#cbd5e1" font-size="15">Correlate database / query signals with related infrastructure state, dependencies, recent events,
and service impact.
</text>
<rect x="1650" y="506" width="220" height="38" rx="19" fill="#020617" stroke="#7c3aed" stroke-width="2" />
<text x="1760" y="531" fill="#7c3aed" font-size="13" text-anchor="middle" font-weight="bold">CORRELATION</text>
<rect x="114" y="562" width="1772" height="40" rx="18" fill="#020617" stroke="#7c3aed" stroke-width="2" opacity="0.98" />
<rect x="128" y="569" width="190" height="26" rx="13" fill="#2e1065" stroke="#a78bfa" stroke-width="1" />
<text x="223.0" y="587" fill="#ddd6fe" font-size="10" text-anchor="middle" font-weight="bold">CORE PROCESSING</text>
<text x="535.0" y="587" fill="#cbd5e1" font-size="10" text-anchor="middle" font-weight="bold">Input Signals</text>
<text x="724.0" y="588" fill="#a78bfa" font-size="16" text-anchor="middle" font-weight="bold">→</text>
<text x="913.0" y="587" fill="#cbd5e1" font-size="10" text-anchor="middle" font-weight="bold">Correlation</text>
<text x="1102.0" y="588" fill="#a78bfa" font-size="16" text-anchor="middle" font-weight="bold">→</text>
<text x="1291.0" y="587" fill="#cbd5e1" font-size="10" text-anchor="middle" font-weight="bold">Dependency Map</text>
<text x="1480.0" y="588" fill="#a78bfa" font-size="16" text-anchor="middle" font-weight="bold">→</text>
<text x="1669.0" y="587" fill="#cbd5e1" font-size="10" text-anchor="middle" font-weight="bold">Incident Conte</text>
<rect x="114" y="622" width="540" height="108" rx="22" fill="#111827" stroke="#334155" stroke-width="2" />
<circle cx="152" cy="662" r="22" fill="#020617" stroke="#14b8a6" stroke-width="2" />
<circle cx="152" cy="662" r="7" fill="#14b8a6" />
<circle cx="152" cy="662" r="14" fill="none" stroke="#14b8a6" stroke-width="2" opacity="0.35" />
<text x="186" y="654" fill="#ffffff" font-size="16" font-weight="bold">Signal Join</text>
<text x="186" y="680" fill="#cbd5e1" font-size="10">Symptoms are connected acros</text>
<text x="186" y="706" fill="#94a3b8" font-size="10">correlation</text>
<rect x="536" y="694" width="96" height="22" rx="11" fill="#020617" stroke="#14b8a6" stroke-width="1" />
<text x="584" y="710" fill="#14b8a6" font-size="10" text-anchor="middle" font-weight="bold">Active</text>
<rect x="678" y="622" width="540" height="108" rx="22" fill="#111827" stroke="#334155" stroke-width="2" />
<circle cx="716" cy="662" r="22" fill="#020617" stroke="#94a3b8" stroke-width="2" />
<circle cx="716" cy="662" r="7" fill="#94a3b8" />
<circle cx="716" cy="662" r="14" fill="none" stroke="#94a3b8" stroke-width="2" opacity="0.35" />
<text x="750" y="654" fill="#ffffff" font-size="16" font-weight="bold">Noise Reduction</text>
<text x="750" y="680" fill="#cbd5e1" font-size="10">Unrelated signals are filter</text>
<text x="750" y="706" fill="#94a3b8" font-size="10">analysis</text>
<rect x="1100" y="694" width="96" height="22" rx="11" fill="#020617" stroke="#94a3b8" stroke-width="1" />
<text x="1148" y="710" fill="#94a3b8" font-size="10" text-anchor="middle" font-weight="bold">Filtered</text>
<rect x="1242" y="622" width="540" height="108" rx="22" fill="#111827" stroke="#334155" stroke-width="2" />
<circle cx="1280" cy="662" r="22" fill="#020617" stroke="#818cf8" stroke-width="2" />
<circle cx="1280" cy="662" r="7" fill="#818cf8" />
<circle cx="1280" cy="662" r="14" fill="none" stroke="#818cf8" stroke-width="2" opacity="0.35" />
<text x="1314" y="654" fill="#ffffff" font-size="16" font-weight="bold">Dependency Map</text>
<text x="1314" y="680" fill="#cbd5e1" font-size="10">Impact path is reviewed</text>
<text x="1314" y="706" fill="#94a3b8" font-size="10">dependency</text>
<rect x="1664" y="694" width="96" height="22" rx="11" fill="#020617" stroke="#818cf8" stroke-width="1" />
<text x="1712" y="710" fill="#818cf8" font-size="10" text-anchor="middle" font-weight="bold">Mapped</text>
<rect x="80" y="800" width="1840" height="220" rx="28" fill="#1e293b" stroke="#dc2626" stroke-width="3" />
<rect x="80" y="800" width="14" height="220" rx="7" fill="#dc2626" />
<text x="114" y="842" fill="#ffffff" font-size="24" font-weight="bold">Impact Analysis</text>
<text x="114" y="870" fill="#cbd5e1" font-size="15">Affected service or infrastructure scope is estimated.</text>
<rect x="1650" y="826" width="220" height="38" rx="19" fill="#020617" stroke="#dc2626" stroke-width="2" />
<text x="1760" y="851" fill="#dc2626" font-size="13" text-anchor="middle" font-weight="bold">IMPACT REVIEW</text>
<rect x="114" y="892" width="540" height="112" rx="22" fill="#111827" stroke="#334155" stroke-width="2" />
<circle cx="152" cy="932" r="22" fill="#020617" stroke="#a78bfa" stroke-width="2" />
<circle cx="152" cy="932" r="7" fill="#a78bfa" />
<circle cx="152" cy="932" r="14" fill="none" stroke="#a78bfa" stroke-width="2" opacity="0.35" />
<text x="186" y="924" fill="#ffffff" font-size="16" font-weight="bold">Impact Scope</text>
<text x="186" y="950" fill="#cbd5e1" font-size="10">Correlate database / query s</text>
<text x="186" y="976" fill="#94a3b8" font-size="10">impact</text>
<rect x="536" y="968" width="96" height="22" rx="11" fill="#020617" stroke="#a78bfa" stroke-width="1" />
<text x="584" y="984" fill="#a78bfa" font-size="10" text-anchor="middle" font-weight="bold">Reviewed</text>
<rect x="678" y="892" width="540" height="112" rx="22" fill="#111827" stroke="#334155" stroke-width="2" />
<circle cx="716" cy="932" r="22" fill="#020617" stroke="#94a3b8" stroke-width="2" />
<circle cx="716" cy="932" r="7" fill="#94a3b8" />
<circle cx="716" cy="932" r="14" fill="none" stroke="#94a3b8" stroke-width="2" opacity="0.35" />
<text x="750" y="924" fill="#ffffff" font-size="16" font-weight="bold">Propagation Path</text>
<text x="750" y="950" fill="#cbd5e1" font-size="10">Likely dependency path docum</text>
<text x="750" y="976" fill="#94a3b8" font-size="10">path</text>
<rect x="1100" y="968" width="96" height="22" rx="11" fill="#020617" stroke="#94a3b8" stroke-width="1" />
<text x="1148" y="984" fill="#94a3b8" font-size="10" text-anchor="middle" font-weight="bold">Identified</text>
<rect x="1242" y="892" width="540" height="112" rx="22" fill="#111827" stroke="#334155" stroke-width="2" />
<circle cx="1280" cy="932" r="22" fill="#020617" stroke="#22c55e" stroke-width="2" />
<circle cx="1280" cy="932" r="7" fill="#22c55e" />
<circle cx="1280" cy="932" r="14" fill="none" stroke="#22c55e" stroke-width="2" opacity="0.35" />
<text x="1314" y="924" fill="#ffffff" font-size="16" font-weight="bold">Priority Context</text>
<text x="1314" y="950" fill="#cbd5e1" font-size="10">Incident or response priorit</text>
<text x="1314" y="976" fill="#94a3b8" font-size="10">priority</text>
<rect x="1664" y="968" width="96" height="22" rx="11" fill="#020617" stroke="#22c55e" stroke-width="1" />
<text x="1712" y="984" fill="#22c55e" font-size="10" text-anchor="middle" font-weight="bold">Prepared</text>
<rect x="80" y="1060" width="1840" height="220" rx="28" fill="#1e293b" stroke="#16a34a" stroke-width="3" />
<rect x="80" y="1060" width="14" height="220" rx="7" fill="#16a34a" />
<text x="114" y="1102" fill="#ffffff" font-size="24" font-weight="bold">Operational Insight</text>
<text x="114" y="1130" fill="#cbd5e1" font-size="15">Correlation output becomes reviewer-readable operational insight.</text>
<rect x="1650" y="1086" width="220" height="38" rx="19" fill="#020617" stroke="#16a34a" stroke-width="2" />
<text x="1760" y="1111" fill="#16a34a" font-size="13" text-anchor="middle" font-weight="bold">INSIGHT READY</text>
<rect x="114" y="1152" width="540" height="112" rx="22" fill="#111827" stroke="#334155" stroke-width="2" />
<circle cx="152" cy="1192" r="22" fill="#020617" stroke="#84cc16" stroke-width="2" />
<circle cx="152" cy="1192" r="7" fill="#84cc16" />
<circle cx="152" cy="1192" r="14" fill="none" stroke="#84cc16" stroke-width="2" opacity="0.35" />
<text x="186" y="1184" fill="#ffffff" font-size="16" font-weight="bold">Root Context</text>
<text x="186" y="1210" fill="#cbd5e1" font-size="10">Probable cause context summa</text>
<text x="186" y="1236" fill="#94a3b8" font-size="10">insight</text>
<rect x="536" y="1228" width="96" height="22" rx="11" fill="#020617" stroke="#84cc16" stroke-width="1" />
<text x="584" y="1244" fill="#84cc16" font-size="10" text-anchor="middle" font-weight="bold">Ready</text>
<rect x="678" y="1152" width="540" height="112" rx="22" fill="#111827" stroke="#334155" stroke-width="2" />
<circle cx="716" cy="1192" r="22" fill="#020617" stroke="#94a3b8" stroke-width="2" />
<polygon points="707,1179 721,1179 727,1185 727,1205 707,1205" fill="none" stroke="#94a3b8" stroke-width="2" stroke-linejoin="round" />
<line x1="712" y1="1192" x2="721" y2="1192" stroke="#94a3b8" stroke-width="2" stroke-linecap="round" />
<line x1="712" y1="1198" x2="721" y2="1198" stroke="#94a3b8" stroke-width="2" stroke-linecap="round" />
<text x="750" y="1184" fill="#ffffff" font-size="16" font-weight="bold">Evidence Output</text>
<text x="750" y="1210" fill="#cbd5e1" font-size="10">Analysis evidence generated</text>
<text x="750" y="1236" fill="#94a3b8" font-size="10">evidence</text>
<rect x="1100" y="1228" width="96" height="22" rx="11" fill="#020617" stroke="#94a3b8" stroke-width="1" />
<text x="1148" y="1244" fill="#94a3b8" font-size="10" text-anchor="middle" font-weight="bold">Generated</text>
<rect x="1242" y="1152" width="540" height="112" rx="22" fill="#111827" stroke="#334155" stroke-width="2" />
<circle cx="1280" cy="1192" r="22" fill="#020617" stroke="#94a3b8" stroke-width="2" />
<circle cx="1280" cy="1192" r="7" fill="#94a3b8" />
<circle cx="1280" cy="1192" r="14" fill="none" stroke="#94a3b8" stroke-width="2" opacity="0.35" />
<text x="1314" y="1184" fill="#ffffff" font-size="16" font-weight="bold">Review State</text>
<text x="1314" y="1210" fill="#cbd5e1" font-size="10">Scenario reasoning is docume</text>
<text x="1314" y="1236" fill="#94a3b8" font-size="10">review</text>
<rect x="1664" y="1228" width="96" height="22" rx="11" fill="#020617" stroke="#94a3b8" stroke-width="1" />
<text x="1712" y="1244" fill="#94a3b8" font-size="10" text-anchor="middle" font-weight="bold">Reviewable</text>
<line x1="1000.0" y1="450" x2="1000.0" y2="452" stroke="#475569" stroke-width="2" stroke-linecap="round" stroke-dasharray="8 8" opacity="0.55" />
<polygon points="992.0,454 1008.0,454 1000.0,470" fill="#64748b" opacity="0.75" />
<line x1="1000.0" y1="770" x2="1000.0" y2="772" stroke="#475569" stroke-width="2" stroke-linecap="round" stroke-dasharray="8 8" opacity="0.55" />
<polygon points="992.0,774 1008.0,774 1000.0,790" fill="#64748b" opacity="0.75" />
<line x1="1000.0" y1="1030" x2="1000.0" y2="1032" stroke="#475569" stroke-width="2" stroke-linecap="round" stroke-dasharray="8 8" opacity="0.55" />
<polygon points="992.0,1034 1008.0,1034 1000.0,1050" fill="#64748b" opacity="0.75" />
<rect x="1990" y="200" width="550" height="760" rx="28" fill="#111827" stroke="#334155" stroke-width="2" />
<text x="2020" y="244" fill="#ffffff" font-size="24" font-weight="bold">Operational Workflow</text>
<text x="2020" y="274" fill="#cbd5e1" font-size="13">Lifecycle execution sequence</text>
<circle cx="2044" cy="320" r="18" fill="#38bdf8" stroke="#38bdf8" stroke-width="3" opacity="0.95" />
<text x="2044" y="326" fill="#020617" font-size="13" text-anchor="middle" font-weight="bold">1</text>
<text x="2078" y="316" fill="#ffffff" font-size="17" font-weight="bold">Collect</text>
<text x="2078" y="340" fill="#94a3b8" font-size="12">Collect related operational signals.</text>
<rect x="2412" y="302" width="96" height="26" rx="13" fill="#020617" stroke="#38bdf8" stroke-width="1" />
<text x="2460" y="320" fill="#38bdf8" font-size="10" text-anchor="middle" font-weight="bold">Collected</text>
<line x1="2044" y1="342" x2="2044" y2="412" stroke="#475569" stroke-width="2" stroke-dasharray="6 6" opacity="0.7" />
<circle cx="2044" cy="436" r="18" fill="#8b5cf6" stroke="#8b5cf6" stroke-width="3" opacity="0.95" />
<text x="2044" y="442" fill="#020617" font-size="13" text-anchor="middle" font-weight="bold">2</text>
<text x="2078" y="432" fill="#ffffff" font-size="17" font-weight="bold">Correlate</text>
<text x="2078" y="456" fill="#94a3b8" font-size="12">Map dependency and symptom relationships.</text>
<rect x="2412" y="418" width="96" height="26" rx="13" fill="#020617" stroke="#8b5cf6" stroke-width="1" />
<text x="2460" y="436" fill="#8b5cf6" font-size="10" text-anchor="middle" font-weight="bold">Correlated</text>
<line x1="2044" y1="458" x2="2044" y2="528" stroke="#475569" stroke-width="2" stroke-dasharray="6 6" opacity="0.7" />
<circle cx="2044" cy="552" r="18" fill="#f97316" stroke="#f97316" stroke-width="3" opacity="0.95" />
<text x="2044" y="558" fill="#020617" font-size="13" text-anchor="middle" font-weight="bold">3</text>
<text x="2078" y="548" fill="#ffffff" font-size="17" font-weight="bold">Assess</text>
<text x="2078" y="572" fill="#94a3b8" font-size="12">Estimate service impact and priority.</text>
<rect x="2412" y="534" width="96" height="26" rx="13" fill="#020617" stroke="#f97316" stroke-width="1" />
<text x="2460" y="552" fill="#f97316" font-size="10" text-anchor="middle" font-weight="bold">Assessed</text>
<line x1="2044" y1="574" x2="2044" y2="644" stroke="#475569" stroke-width="2" stroke-dasharray="6 6" opacity="0.7" />
<circle cx="2044" cy="668" r="18" fill="#22c55e" stroke="#22c55e" stroke-width="3" opacity="0.95" />
<text x="2044" y="674" fill="#020617" font-size="13" text-anchor="middle" font-weight="bold">4</text>
<text x="2078" y="664" fill="#ffffff" font-size="17" font-weight="bold">Prepare</text>
<text x="2078" y="688" fill="#94a3b8" font-size="12">Prepare incident context and evidence.</text>
<rect x="2412" y="650" width="96" height="26" rx="13" fill="#020617" stroke="#22c55e" stroke-width="1" />
<text x="2460" y="668" fill="#22c55e" font-size="10" text-anchor="middle" font-weight="bold">Prepared</text>
<rect x="1990" y="990" width="550" height="300" rx="26" fill="#111827" stroke="#334155" stroke-width="2" />
<text x="2018" y="1032" fill="#ffffff" font-size="22" font-weight="bold">Correlation Summary</text>
<text x="2018" y="1060" fill="#cbd5e1" font-size="13">Signals, dependency, impact, and insight coverag</text>
<rect x="2018" y="1076" width="494" height="32" rx="16" fill="#020617" stroke="#334155" stroke-width="1" />
<text x="2040" y="1098" fill="#94a3b8" font-size="13" font-weight="bold">Signals</text>
<text x="2486" y="1098" fill="#ffffff" font-size="16" text-anchor="end" font-weight="bold">3</text>
<rect x="2018" y="1118" width="494" height="32" rx="16" fill="#020617" stroke="#334155" stroke-width="1" />
<text x="2040" y="1140" fill="#94a3b8" font-size="13" font-weight="bold">Correlation</text>
<text x="2486" y="1140" fill="#ffffff" font-size="16" text-anchor="end" font-weight="bold">3</text>
<rect x="2018" y="1160" width="494" height="32" rx="16" fill="#020617" stroke="#334155" stroke-width="1" />
<text x="2040" y="1182" fill="#94a3b8" font-size="13" font-weight="bold">Impact</text>
<text x="2486" y="1182" fill="#ffffff" font-size="16" text-anchor="end" font-weight="bold">3</text>
<rect x="2018" y="1202" width="494" height="32" rx="16" fill="#020617" stroke="#334155" stroke-width="1" />
<text x="2040" y="1224" fill="#94a3b8" font-size="13" font-weight="bold">Insights</text>
<text x="2486" y="1224" fill="#ffffff" font-size="16" text-anchor="end" font-weight="bold">3</text>
<rect x="60" y="1345" width="1880" height="320" rx="30" fill="#111827" stroke="#334155" stroke-width="2" />
<rect x="84" y="1367" width="1832" height="70" rx="22" fill="#020617" stroke="#7c3aed" stroke-width="2" opacity="0.96" />
<text x="108" y="1397" fill="#ffffff" font-size="24" font-weight="bold">Scenario Readiness</text>
<text x="108" y="1423" fill="#cbd5e1" font-size="13">Operational status and validation metrics</text>
<rect x="94" y="1463" width="430" height="150" rx="26" fill="#2e1065" stroke="#7c3aed" stroke-width="4" opacity="0.98" />
<text x="122" y="1505" fill="#94a3b8" font-size="13" font-weight="bold">Impact State</text>
<text x="122" y="1555" fill="#ffffff" font-size="30" font-weight="bold">CORRELATED</text>
<rect x="122" y="1583" width="320" height="32" rx="16" fill="#020617" stroke="#7c3aed" stroke-width="1" />
<text x="138" y="1604" fill="#cbd5e1" font-size="12" font-weight="bold">Signals mapped to service impact</text>
<rect x="560" y="1463" width="205" height="68" rx="20" fill="#0f172a" stroke="#10b981" stroke-width="2" opacity="0.98" />
<rect x="574" y="1475" width="10" height="44" rx="5" fill="#10b981" opacity="0.85" />
<text x="600" y="1493" fill="#94a3b8" font-size="11" font-weight="bold">Modules</text>
<text x="600" y="1521" fill="#ffffff" font-size="16" font-weight="bold">3</text>
<rect x="787" y="1463" width="205" height="68" rx="20" fill="#0f172a" stroke="#10b981" stroke-width="2" opacity="0.98" />
<rect x="801" y="1475" width="10" height="44" rx="5" fill="#10b981" opacity="0.85" />
<text x="827" y="1493" fill="#94a3b8" font-size="11" font-weight="bold">Adapters</text>
<text x="827" y="1521" fill="#ffffff" font-size="16" font-weight="bold">3</text>
<rect x="1014" y="1463" width="205" height="68" rx="20" fill="#0f172a" stroke="#facc15" stroke-width="2" opacity="0.98" />
<rect x="1028" y="1475" width="10" height="44" rx="5" fill="#facc15" opacity="0.85" />
<text x="1054" y="1493" fill="#94a3b8" font-size="11" font-weight="bold">README</text>
<text x="1054" y="1521" fill="#ffffff" font-size="16" font-weight="bold">Generated</text>
<rect x="560" y="1551" width="205" height="68" rx="20" fill="#0f172a" stroke="#facc15" stroke-width="2" opacity="0.98" />
<rect x="574" y="1563" width="10" height="44" rx="5" fill="#facc15" opacity="0.85" />
<text x="600" y="1581" fill="#94a3b8" font-size="11" font-weight="bold">Poster</text>
<text x="600" y="1609" fill="#ffffff" font-size="16" font-weight="bold">Generated</text>
<rect x="787" y="1551" width="205" height="68" rx="20" fill="#0f172a" stroke="#22c55e" stroke-width="2" opacity="0.98" />
<rect x="801" y="1563" width="10" height="44" rx="5" fill="#22c55e" opacity="0.85" />
<text x="827" y="1581" fill="#94a3b8" font-size="11" font-weight="bold">Evidence</text>
<text x="827" y="1609" fill="#ffffff" font-size="16" font-weight="bold">Ready</text>
<rect x="1440" y="1463" width="455" height="150" rx="26" fill="#020617" stroke="#7c3aed" stroke-width="3" opacity="0.98" />
<text x="1468" y="1505" fill="#ffffff" font-size="19" font-weight="bold">Correlation Result</text>
<rect x="1468" y="1527" width="220" height="30" rx="15" fill="#0f172a" stroke="#7c3aed" stroke-width="1" />
<text x="1578" y="1547" fill="#cbd5e1" font-size="11" text-anchor="middle" font-weight="bold">DASHBOARD RESULT</text>
<text x="1468" y="1587" fill="#94a3b8" font-size="13">Signals are correlated with service impact and operational context.</text>
<rect x="1990" y="1320" width="550" height="330" rx="26" fill="#111827" stroke="#334155" stroke-width="2" />
<text x="2018" y="1362" fill="#ffffff" font-size="22" font-weight="bold">Legend</text>
<text x="2018" y="1390" fill="#94a3b8" font-size="13">Operational role and visual mapping</text>
<circle cx="2032" cy="1427" r="8" fill="#2563eb" />
<text x="2054" y="1432" fill="#94a3b8" font-size="13" font-weight="bold">Signal Domain</text>
<circle cx="2032" cy="1461" r="8" fill="#7c3aed" />
<text x="2054" y="1466" fill="#94a3b8" font-size="13" font-weight="bold">Correlation Platform</text>
<circle cx="2032" cy="1495" r="8" fill="#0891b2" />
<text x="2054" y="1500" fill="#94a3b8" font-size="13" font-weight="bold">Impact Analysis</text>
<circle cx="2032" cy="1529" r="8" fill="#16a34a" />
<text x="2054" y="1534" fill="#94a3b8" font-size="13" font-weight="bold">Operational Insight</text>
</svg>