<svg xmlns="http://www.w3.org/2000/svg" width="2600" height="1900" viewBox="0 0 2600 1900" font-family="Arial, Helvetica, sans-serif">
<style>text { font-family: Arial, Helvetica, sans-serif; letter-spacing: normal; word-spacing: normal; text-rendering: optimizeLegibility; font-kerning: normal; }</style>
<style>text { font-family: Arial, Helvetica, sans-serif; letter-spacing: normal; word-spacing: normal; text-rendering: optimizeLegibility; font-kerning: normal; }</style>
<rect width="2600" height="1900" fill="#020617" />
<rect x="60" y="40" width="2480" height="130" rx="30" fill="#111827" stroke="#334155" stroke-width="2" />
<text x="98" y="92" fill="#ffffff" font-size="34" font-weight="bold">Kubernetes Node Recovery</text>
<text x="100" y="128" fill="#cbd5e1" font-size="17">Scenario-driven Infrastructure Operations Portfolio</text>
<rect x="1900" y="72" width="270" height="38" rx="19" fill="#020617" stroke="#334155" stroke-width="1" />
<text x="2035" y="97" fill="#94a3b8" font-size="13" text-anchor="middle" font-weight="bold">level-3-recovery</text>
<rect x="2200" y="72" width="280" height="38" rx="19" fill="#020617" stroke="#334155" stroke-width="1" />
<text x="2340" y="97" fill="#94a3b8" font-size="13" text-anchor="middle" font-weight="bold"></text>
<rect x="80" y="220" width="1840" height="220" rx="28" fill="#1e293b" stroke="#dc2626" stroke-width="3" />
<rect x="80" y="220" width="14" height="220" rx="7" fill="#dc2626" />
<text x="114" y="262" fill="#ffffff" font-size="24" font-weight="bold">Incident Trigger</text>
<text x="114" y="290" fill="#cbd5e1" font-size="15">node readiness; pod health; API server availability; scheduling status; resource pressure; control
plane signal
</text>
<rect x="1650" y="246" width="220" height="38" rx="19" fill="#020617" stroke="#dc2626" stroke-width="2" />
<text x="1760" y="271" fill="#dc2626" font-size="13" text-anchor="middle" font-weight="bold">TRIGGERED</text>
<rect x="114" y="312" width="540" height="112" rx="22" fill="#111827" stroke="#334155" stroke-width="2" />
<circle cx="152" cy="352" r="22" fill="#020617" stroke="#fb923c" stroke-width="2" />
<polygon points="152,338 166,364 138,364" fill="none" stroke="#fb923c" stroke-width="2" stroke-linejoin="round" />
<line x1="152" y1="348" x2="152" y2="356" stroke="#fb923c" stroke-width="2" stroke-linecap="round" />
<circle cx="152" cy="361" r="2" fill="#fb923c" />
<text x="186" y="344" fill="#ffffff" font-size="16" font-weight="bold">Trigger Signal</text>
<text x="186" y="370" fill="#cbd5e1" font-size="10">node readiness; pod health; </text>
<text x="186" y="396" fill="#94a3b8" font-size="10">alert</text>
<rect x="536" y="388" width="96" height="22" rx="11" fill="#020617" stroke="#fb923c" stroke-width="1" />
<text x="584" y="404" fill="#fb923c" font-size="10" text-anchor="middle" font-weight="bold">Detected</text>
<rect x="678" y="312" width="540" height="112" rx="22" fill="#111827" stroke="#334155" stroke-width="2" />
<circle cx="716" cy="352" r="22" fill="#020617" stroke="#ef4444" stroke-width="2" />
<circle cx="716" cy="352" r="7" fill="#ef4444" />
<circle cx="716" cy="352" r="14" fill="none" stroke="#ef4444" stroke-width="2" opacity="0.35" />
<text x="750" y="344" fill="#ffffff" font-size="16" font-weight="bold">Affected Target</text>
<text x="750" y="370" fill="#cbd5e1" font-size="10">Kubernetes Cluster</text>
<text x="750" y="396" fill="#94a3b8" font-size="10">target</text>
<rect x="1100" y="388" width="96" height="22" rx="11" fill="#020617" stroke="#ef4444" stroke-width="1" />
<text x="1148" y="404" fill="#ef4444" font-size="10" text-anchor="middle" font-weight="bold">Impacted</text>
<rect x="1242" y="312" width="540" height="112" rx="22" fill="#111827" stroke="#334155" stroke-width="2" />
<circle cx="1280" cy="352" r="22" fill="#020617" stroke="#f97316" stroke-width="2" />
<circle cx="1280" cy="352" r="7" fill="#f97316" />
<circle cx="1280" cy="352" r="14" fill="none" stroke="#f97316" stroke-width="2" opacity="0.35" />
<text x="1314" y="344" fill="#ffffff" font-size="16" font-weight="bold">Response Need</text>
<text x="1314" y="370" fill="#cbd5e1" font-size="10">Recovery workflow is require</text>
<text x="1314" y="396" fill="#94a3b8" font-size="10">incident</text>
<rect x="1664" y="388" width="96" height="22" rx="11" fill="#020617" stroke="#f97316" stroke-width="1" />
<text x="1712" y="404" fill="#f97316" font-size="10" text-anchor="middle" font-weight="bold">Qualified</text>
<rect x="80" y="470" width="1840" height="280" rx="28" fill="#1e293b" stroke="#7c3aed" stroke-width="3" />
<rect x="80" y="470" width="14" height="280" rx="7" fill="#7c3aed" />
<text x="114" y="512" fill="#ffffff" font-size="24" font-weight="bold">Recovery Control</text>
<text x="114" y="540" fill="#cbd5e1" font-size="15">Recovery action is selected and controlled.</text>
<rect x="1650" y="496" width="220" height="38" rx="19" fill="#020617" stroke="#7c3aed" stroke-width="2" />
<text x="1760" y="521" fill="#7c3aed" font-size="13" text-anchor="middle" font-weight="bold">CONTROL READY</text>
<rect x="114" y="552" width="1772" height="40" rx="18" fill="#020617" stroke="#7c3aed" stroke-width="2" opacity="0.98" />
<rect x="128" y="559" width="190" height="26" rx="13" fill="#2e1065" stroke="#a78bfa" stroke-width="1" />
<text x="223.0" y="577" fill="#ddd6fe" font-size="10" text-anchor="middle" font-weight="bold">RECOVERY CONTROL</text>
<text x="535.0" y="577" fill="#cbd5e1" font-size="10" text-anchor="middle" font-weight="bold">Trigger Review</text>
<text x="724.0" y="578" fill="#a78bfa" font-size="16" text-anchor="middle" font-weight="bold">→</text>
<text x="913.0" y="577" fill="#cbd5e1" font-size="10" text-anchor="middle" font-weight="bold">Policy Check</text>
<text x="1102.0" y="578" fill="#a78bfa" font-size="16" text-anchor="middle" font-weight="bold">→</text>
<text x="1291.0" y="577" fill="#cbd5e1" font-size="10" text-anchor="middle" font-weight="bold">Execution Plan</text>
<text x="1480.0" y="578" fill="#a78bfa" font-size="16" text-anchor="middle" font-weight="bold">→</text>
<text x="1669.0" y="577" fill="#cbd5e1" font-size="10" text-anchor="middle" font-weight="bold">Approval</text>
<rect x="114" y="612" width="540" height="108" rx="22" fill="#111827" stroke="#334155" stroke-width="2" />
<circle cx="152" cy="652" r="22" fill="#020617" stroke="#facc15" stroke-width="2" />
<circle cx="152" cy="652" r="7" fill="#facc15" />
<circle cx="152" cy="652" r="14" fill="none" stroke="#facc15" stroke-width="2" opacity="0.35" />
<text x="186" y="644" fill="#ffffff" font-size="16" font-weight="bold">Recovery Policy</text>
<text x="186" y="670" fill="#cbd5e1" font-size="10">Recovery decision criteria r</text>
<text x="186" y="696" fill="#94a3b8" font-size="10">policy</text>
<rect x="536" y="684" width="96" height="22" rx="11" fill="#020617" stroke="#facc15" stroke-width="1" />
<text x="584" y="700" fill="#facc15" font-size="10" text-anchor="middle" font-weight="bold">Checked</text>
<rect x="678" y="612" width="540" height="108" rx="22" fill="#111827" stroke="#334155" stroke-width="2" />
<circle cx="716" cy="652" r="22" fill="#020617" stroke="#22c55e" stroke-width="2" />
<circle cx="716" cy="652" r="7" fill="#22c55e" />
<circle cx="716" cy="652" r="14" fill="none" stroke="#22c55e" stroke-width="2" opacity="0.35" />
<text x="750" y="644" fill="#ffffff" font-size="16" font-weight="bold">Execution Plan</text>
<text x="750" y="670" fill="#cbd5e1" font-size="10">Recovery workflow selected</text>
<text x="750" y="696" fill="#94a3b8" font-size="10">plan</text>
<rect x="1100" y="684" width="96" height="22" rx="11" fill="#020617" stroke="#22c55e" stroke-width="1" />
<text x="1148" y="700" fill="#22c55e" font-size="10" text-anchor="middle" font-weight="bold">Prepared</text>
<rect x="1242" y="612" width="540" height="108" rx="22" fill="#111827" stroke="#334155" stroke-width="2" />
<circle cx="1280" cy="652" r="22" fill="#020617" stroke="#84cc16" stroke-width="2" />
<circle cx="1280" cy="652" r="7" fill="#84cc16" />
<circle cx="1280" cy="652" r="14" fill="none" stroke="#84cc16" stroke-width="2" opacity="0.35" />
<text x="1314" y="644" fill="#ffffff" font-size="16" font-weight="bold">Operator Control</text>
<text x="1314" y="670" fill="#cbd5e1" font-size="10">Manual or automation control</text>
<text x="1314" y="696" fill="#94a3b8" font-size="10">control</text>
<rect x="1664" y="684" width="96" height="22" rx="11" fill="#020617" stroke="#84cc16" stroke-width="1" />
<text x="1712" y="700" fill="#84cc16" font-size="10" text-anchor="middle" font-weight="bold">Ready</text>
<rect x="80" y="780" width="1840" height="270" rx="28" fill="#1e293b" stroke="#0891b2" stroke-width="3" />
<rect x="80" y="780" width="14" height="270" rx="7" fill="#0891b2" />
<text x="114" y="822" fill="#ffffff" font-size="24" font-weight="bold">Automation Execution</text>
<text x="114" y="850" fill="#cbd5e1" font-size="15">Recovery workflow is executed and tracked.</text>
<rect x="1650" y="806" width="220" height="38" rx="19" fill="#020617" stroke="#0891b2" stroke-width="2" />
<text x="1760" y="831" fill="#0891b2" font-size="13" text-anchor="middle" font-weight="bold">EXECUTING</text>
<rect x="114" y="862" width="1772" height="40" rx="18" fill="#020617" stroke="#0891b2" stroke-width="2" opacity="0.98" />
<rect x="128" y="869" width="190" height="26" rx="13" fill="#164e63" stroke="#67e8f9" stroke-width="1" />
<text x="223.0" y="887" fill="#cffafe" font-size="10" text-anchor="middle" font-weight="bold">AUTOMATION RUNBOOK</text>
<text x="535.0" y="887" fill="#cbd5e1" font-size="10" text-anchor="middle" font-weight="bold">Tunnel Reset</text>
<text x="724.0" y="888" fill="#67e8f9" font-size="16" text-anchor="middle" font-weight="bold">→</text>
<text x="913.0" y="887" fill="#cbd5e1" font-size="10" text-anchor="middle" font-weight="bold">Route Refresh</text>
<text x="1102.0" y="888" fill="#67e8f9" font-size="16" text-anchor="middle" font-weight="bold">→</text>
<text x="1291.0" y="887" fill="#cbd5e1" font-size="10" text-anchor="middle" font-weight="bold">Failover</text>
<text x="1480.0" y="888" fill="#67e8f9" font-size="16" text-anchor="middle" font-weight="bold">→</text>
<text x="1669.0" y="887" fill="#cbd5e1" font-size="10" text-anchor="middle" font-weight="bold">Notify</text>
<rect x="114" y="918" width="540" height="108" rx="22" fill="#111827" stroke="#334155" stroke-width="2" />
<circle cx="152" cy="958" r="22" fill="#020617" stroke="#06b6d4" stroke-width="2" />
<circle cx="152" cy="958" r="7" fill="#06b6d4" />
<circle cx="152" cy="958" r="14" fill="none" stroke="#06b6d4" stroke-width="2" opacity="0.35" />
<text x="186" y="950" fill="#ffffff" font-size="16" font-weight="bold">Automation Runbook</text>
<text x="186" y="976" fill="#cbd5e1" font-size="10">Operator-guided or automated</text>
<text x="186" y="1002" fill="#94a3b8" font-size="10">automation</text>
<rect x="536" y="990" width="96" height="22" rx="11" fill="#020617" stroke="#06b6d4" stroke-width="1" />
<text x="584" y="1006" fill="#06b6d4" font-size="10" text-anchor="middle" font-weight="bold">Running</text>
<rect x="678" y="918" width="540" height="108" rx="22" fill="#111827" stroke="#334155" stroke-width="2" />
<circle cx="716" cy="958" r="22" fill="#020617" stroke="#38bdf8" stroke-width="2" />
<circle cx="716" cy="958" r="7" fill="#38bdf8" />
<circle cx="716" cy="958" r="14" fill="none" stroke="#38bdf8" stroke-width="2" opacity="0.35" />
<text x="750" y="950" fill="#ffffff" font-size="16" font-weight="bold">State Change</text>
<text x="750" y="976" fill="#cbd5e1" font-size="10">Infrastructure state change </text>
<text x="750" y="1002" fill="#94a3b8" font-size="10">change</text>
<rect x="1100" y="990" width="96" height="22" rx="11" fill="#020617" stroke="#38bdf8" stroke-width="1" />
<text x="1148" y="1006" fill="#38bdf8" font-size="10" text-anchor="middle" font-weight="bold">Tracked</text>
<rect x="1242" y="918" width="540" height="108" rx="22" fill="#111827" stroke="#334155" stroke-width="2" />
<circle cx="1280" cy="958" r="22" fill="#020617" stroke="#94a3b8" stroke-width="2" />
<circle cx="1280" cy="958" r="7" fill="#94a3b8" />
<circle cx="1280" cy="958" r="14" fill="none" stroke="#94a3b8" stroke-width="2" opacity="0.35" />
<text x="1314" y="950" fill="#ffffff" font-size="16" font-weight="bold">Execution Result</text>
<text x="1314" y="976" fill="#cbd5e1" font-size="10">Execution result recorded</text>
<text x="1314" y="1002" fill="#94a3b8" font-size="10">result</text>
<rect x="1664" y="990" width="96" height="22" rx="11" fill="#020617" stroke="#94a3b8" stroke-width="1" />
<text x="1712" y="1006" fill="#94a3b8" font-size="10" text-anchor="middle" font-weight="bold">Recorded</text>
<rect x="80" y="1080" width="1840" height="220" rx="28" fill="#1e293b" stroke="#16a34a" stroke-width="3" />
<rect x="80" y="1080" width="14" height="220" rx="7" fill="#16a34a" />
<text x="114" y="1122" fill="#ffffff" font-size="24" font-weight="bold">Recovery Validation</text>
<text x="114" y="1150" fill="#cbd5e1" font-size="15">Validate stable state, evidence completeness, and operational readiness after detection, analysis,
response, or recovery.
</text>
<rect x="1650" y="1106" width="220" height="38" rx="19" fill="#020617" stroke="#16a34a" stroke-width="2" />
<text x="1760" y="1131" fill="#16a34a" font-size="13" text-anchor="middle" font-weight="bold">RECOVERY READY</text>
<rect x="114" y="1172" width="540" height="112" rx="22" fill="#111827" stroke="#334155" stroke-width="2" />
<circle cx="152" cy="1212" r="22" fill="#020617" stroke="#22c55e" stroke-width="2" />
<rect x="140" y="1200" width="24" height="24" rx="5" fill="none" stroke="#22c55e" stroke-width="2" />
<polyline points="145,1212 151,1218 161,1205" fill="none" stroke="#22c55e" stroke-width="2.5" stroke-linecap="round" stroke-linejoin="round" />
<text x="186" y="1204" fill="#ffffff" font-size="16" font-weight="bold">Health Recheck</text>
<text x="186" y="1230" fill="#cbd5e1" font-size="10">Validate stable state, evide</text>
<text x="186" y="1256" fill="#94a3b8" font-size="10">validation</text>
<rect x="536" y="1248" width="96" height="22" rx="11" fill="#020617" stroke="#22c55e" stroke-width="1" />
<text x="584" y="1264" fill="#22c55e" font-size="10" text-anchor="middle" font-weight="bold">Passed</text>
<rect x="678" y="1172" width="540" height="112" rx="22" fill="#111827" stroke="#334155" stroke-width="2" />
<circle cx="716" cy="1212" r="22" fill="#020617" stroke="#22c55e" stroke-width="2" />
<rect x="705" y="1201" width="22" height="22" rx="5" fill="none" stroke="#22c55e" stroke-width="2" />
<circle cx="716" cy="1212" r="4" fill="#22c55e" />
<line x1="699" y1="1212" x2="705" y2="1212" stroke="#22c55e" stroke-width="2" stroke-linecap="round" />
<line x1="727" y1="1212" x2="733" y2="1212" stroke="#22c55e" stroke-width="2" stroke-linecap="round" />
<text x="750" y="1204" fill="#ffffff" font-size="16" font-weight="bold">Service State</text>
<text x="750" y="1230" fill="#cbd5e1" font-size="10">Restored or stable state ver</text>
<text x="750" y="1256" fill="#94a3b8" font-size="10">service</text>
<rect x="1100" y="1248" width="96" height="22" rx="11" fill="#020617" stroke="#22c55e" stroke-width="1" />
<text x="1148" y="1264" fill="#22c55e" font-size="10" text-anchor="middle" font-weight="bold">Stable</text>
<rect x="1242" y="1172" width="540" height="112" rx="22" fill="#111827" stroke="#334155" stroke-width="2" />
<circle cx="1280" cy="1212" r="22" fill="#020617" stroke="#94a3b8" stroke-width="2" />
<polygon points="1271,1199 1285,1199 1291,1205 1291,1225 1271,1225" fill="none" stroke="#94a3b8" stroke-width="2" stroke-linejoin="round" />
<line x1="1276" y1="1212" x2="1285" y2="1212" stroke="#94a3b8" stroke-width="2" stroke-linecap="round" />
<line x1="1276" y1="1218" x2="1285" y2="1218" stroke="#94a3b8" stroke-width="2" stroke-linecap="round" />
<text x="1314" y="1204" fill="#ffffff" font-size="16" font-weight="bold">Evidence Record</text>
<text x="1314" y="1230" fill="#cbd5e1" font-size="10">Recovery evidence summarized</text>
<text x="1314" y="1256" fill="#94a3b8" font-size="10">evidence</text>
<rect x="1664" y="1248" width="96" height="22" rx="11" fill="#020617" stroke="#94a3b8" stroke-width="1" />
<text x="1712" y="1264" fill="#94a3b8" font-size="10" text-anchor="middle" font-weight="bold">Generated</text>
<line x1="1000.0" y1="450" x2="1000.0" y2="442" stroke="#475569" stroke-width="2" stroke-linecap="round" stroke-dasharray="8 8" opacity="0.55" />
<polygon points="992.0,444 1008.0,444 1000.0,460" fill="#64748b" opacity="0.75" />
<line x1="1000.0" y1="760" x2="1000.0" y2="752" stroke="#475569" stroke-width="2" stroke-linecap="round" stroke-dasharray="8 8" opacity="0.55" />
<polygon points="992.0,754 1008.0,754 1000.0,770" fill="#64748b" opacity="0.75" />
<line x1="1000.0" y1="1060" x2="1000.0" y2="1052" stroke="#475569" stroke-width="2" stroke-linecap="round" stroke-dasharray="8 8" opacity="0.55" />
<polygon points="992.0,1054 1008.0,1054 1000.0,1070" fill="#64748b" opacity="0.75" />
<rect x="1990" y="200" width="550" height="760" rx="28" fill="#111827" stroke="#334155" stroke-width="2" />
<text x="2020" y="244" fill="#ffffff" font-size="24" font-weight="bold">Operational Workflow</text>
<text x="2020" y="274" fill="#cbd5e1" font-size="13">Lifecycle execution sequence</text>
<circle cx="2044" cy="320" r="18" fill="#ef4444" stroke="#ef4444" stroke-width="3" opacity="0.95" />
<text x="2044" y="326" fill="#020617" font-size="13" text-anchor="middle" font-weight="bold">1</text>
<text x="2078" y="316" fill="#ffffff" font-size="17" font-weight="bold">Trigger</text>
<text x="2078" y="340" fill="#94a3b8" font-size="12">Confirm recovery trigger and affected target.</text>
<rect x="2412" y="302" width="96" height="26" rx="13" fill="#020617" stroke="#ef4444" stroke-width="1" />
<text x="2460" y="320" fill="#ef4444" font-size="10" text-anchor="middle" font-weight="bold">Triggered</text>
<line x1="2044" y1="342" x2="2044" y2="412" stroke="#475569" stroke-width="2" stroke-dasharray="6 6" opacity="0.7" />
<circle cx="2044" cy="436" r="18" fill="#38bdf8" stroke="#38bdf8" stroke-width="3" opacity="0.95" />
<text x="2044" y="442" fill="#020617" font-size="13" text-anchor="middle" font-weight="bold">2</text>
<text x="2078" y="432" fill="#ffffff" font-size="17" font-weight="bold">Select</text>
<text x="2078" y="456" fill="#94a3b8" font-size="12">Select controlled recovery workflow.</text>
<rect x="2412" y="418" width="96" height="26" rx="13" fill="#020617" stroke="#38bdf8" stroke-width="1" />
<text x="2460" y="436" fill="#38bdf8" font-size="10" text-anchor="middle" font-weight="bold">Selected</text>
<line x1="2044" y1="458" x2="2044" y2="528" stroke="#475569" stroke-width="2" stroke-dasharray="6 6" opacity="0.7" />
<circle cx="2044" cy="552" r="18" fill="#06b6d4" stroke="#06b6d4" stroke-width="3" opacity="0.95" />
<text x="2044" y="558" fill="#020617" font-size="13" text-anchor="middle" font-weight="bold">3</text>
<text x="2078" y="548" fill="#ffffff" font-size="17" font-weight="bold">Execute</text>
<text x="2078" y="572" fill="#94a3b8" font-size="12">Run automation or operator action.</text>
<rect x="2412" y="534" width="96" height="26" rx="13" fill="#020617" stroke="#06b6d4" stroke-width="1" />
<text x="2460" y="552" fill="#06b6d4" font-size="10" text-anchor="middle" font-weight="bold">Executed</text>
<line x1="2044" y1="574" x2="2044" y2="644" stroke="#475569" stroke-width="2" stroke-dasharray="6 6" opacity="0.7" />
<circle cx="2044" cy="668" r="18" fill="#84cc16" stroke="#84cc16" stroke-width="3" opacity="0.95" />
<text x="2044" y="674" fill="#020617" font-size="13" text-anchor="middle" font-weight="bold">4</text>
<text x="2078" y="664" fill="#ffffff" font-size="17" font-weight="bold">Validate</text>
<text x="2078" y="688" fill="#94a3b8" font-size="12">Confirm restored and stable state.</text>
<rect x="2412" y="650" width="96" height="26" rx="13" fill="#020617" stroke="#84cc16" stroke-width="1" />
<text x="2460" y="668" fill="#84cc16" font-size="10" text-anchor="middle" font-weight="bold">Validated</text>
<rect x="1990" y="990" width="550" height="300" rx="26" fill="#111827" stroke="#334155" stroke-width="2" />
<text x="2018" y="1032" fill="#ffffff" font-size="22" font-weight="bold">Recovery Summary</text>
<text x="2018" y="1060" fill="#cbd5e1" font-size="13">Trigger, control, automation, and validation cov</text>
<rect x="2018" y="1076" width="494" height="32" rx="16" fill="#020617" stroke="#334155" stroke-width="1" />
<text x="2040" y="1098" fill="#94a3b8" font-size="13" font-weight="bold">Triggers</text>
<text x="2486" y="1098" fill="#ffffff" font-size="16" text-anchor="end" font-weight="bold">3</text>
<rect x="2018" y="1118" width="494" height="32" rx="16" fill="#020617" stroke="#334155" stroke-width="1" />
<text x="2040" y="1140" fill="#94a3b8" font-size="13" font-weight="bold">Controls</text>
<text x="2486" y="1140" fill="#ffffff" font-size="16" text-anchor="end" font-weight="bold">3</text>
<rect x="2018" y="1160" width="494" height="32" rx="16" fill="#020617" stroke="#334155" stroke-width="1" />
<text x="2040" y="1182" fill="#94a3b8" font-size="13" font-weight="bold">Actions</text>
<text x="2486" y="1182" fill="#ffffff" font-size="16" text-anchor="end" font-weight="bold">3</text>
<rect x="2018" y="1202" width="494" height="32" rx="16" fill="#020617" stroke="#334155" stroke-width="1" />
<text x="2040" y="1224" fill="#94a3b8" font-size="13" font-weight="bold">Validation</text>
<text x="2486" y="1224" fill="#ffffff" font-size="16" text-anchor="end" font-weight="bold">3</text>
<rect x="60" y="1345" width="1880" height="420" rx="30" fill="#111827" stroke="#334155" stroke-width="2" />
<rect x="84" y="1367" width="1832" height="70" rx="22" fill="#020617" stroke="#0891b2" stroke-width="2" opacity="0.96" />
<text x="108" y="1397" fill="#ffffff" font-size="24" font-weight="bold">Scenario Readiness</text>
<text x="108" y="1423" fill="#cbd5e1" font-size="13">Operational status and validation metrics</text>
<rect x="94" y="1463" width="430" height="215" rx="26" fill="#164e63" stroke="#0891b2" stroke-width="4" opacity="0.98" />
<text x="122" y="1505" fill="#94a3b8" font-size="13" font-weight="bold">Recovery State</text>
<text x="122" y="1555" fill="#ffffff" font-size="30" font-weight="bold">READY</text>
<rect x="122" y="1583" width="320" height="32" rx="16" fill="#020617" stroke="#0891b2" stroke-width="1" />
<text x="138" y="1604" fill="#cbd5e1" font-size="12" font-weight="bold">Policy checked and action available</text>
<rect x="560" y="1463" width="205" height="92" rx="20" fill="#0f172a" stroke="#10b981" stroke-width="2" opacity="0.98" />
<rect x="574" y="1475" width="10" height="68" rx="5" fill="#10b981" opacity="0.85" />
<text x="600" y="1493" fill="#94a3b8" font-size="11" font-weight="bold">Modules</text>
<text x="600" y="1521" fill="#ffffff" font-size="16" font-weight="bold">3</text>
<rect x="787" y="1463" width="205" height="92" rx="20" fill="#0f172a" stroke="#10b981" stroke-width="2" opacity="0.98" />
<rect x="801" y="1475" width="10" height="68" rx="5" fill="#10b981" opacity="0.85" />
<text x="827" y="1493" fill="#94a3b8" font-size="11" font-weight="bold">Adapters</text>
<text x="827" y="1521" fill="#ffffff" font-size="16" font-weight="bold">3</text>
<rect x="1014" y="1463" width="205" height="92" rx="20" fill="#0f172a" stroke="#facc15" stroke-width="2" opacity="0.98" />
<rect x="1028" y="1475" width="10" height="68" rx="5" fill="#facc15" opacity="0.85" />
<text x="1054" y="1493" fill="#94a3b8" font-size="11" font-weight="bold">README</text>
<text x="1054" y="1521" fill="#ffffff" font-size="16" font-weight="bold">Generated</text>
<rect x="560" y="1585" width="205" height="92" rx="20" fill="#0f172a" stroke="#facc15" stroke-width="2" opacity="0.98" />
<rect x="574" y="1597" width="10" height="68" rx="5" fill="#facc15" opacity="0.85" />
<text x="600" y="1615" fill="#94a3b8" font-size="11" font-weight="bold">Poster</text>
<text x="600" y="1643" fill="#ffffff" font-size="16" font-weight="bold">Generated</text>
<rect x="787" y="1585" width="205" height="92" rx="20" fill="#0f172a" stroke="#22c55e" stroke-width="2" opacity="0.98" />
<rect x="801" y="1597" width="10" height="68" rx="5" fill="#22c55e" opacity="0.85" />
<text x="827" y="1615" fill="#94a3b8" font-size="11" font-weight="bold">Evidence</text>
<text x="827" y="1643" fill="#ffffff" font-size="16" font-weight="bold">Ready</text>
<rect x="1440" y="1463" width="455" height="215" rx="26" fill="#020617" stroke="#0891b2" stroke-width="3" opacity="0.98" />
<text x="1468" y="1505" fill="#ffffff" font-size="19" font-weight="bold">Recovery Result</text>
<rect x="1468" y="1527" width="220" height="30" rx="15" fill="#0f172a" stroke="#0891b2" stroke-width="1" />
<text x="1578" y="1547" fill="#cbd5e1" font-size="11" text-anchor="middle" font-weight="bold">DASHBOARD RESULT</text>
<text x="1468" y="1587" fill="#94a3b8" font-size="13">Recovery readiness, automation state, and evidence are available.</text>
<rect x="1990" y="1320" width="550" height="420" rx="26" fill="#111827" stroke="#334155" stroke-width="2" />
<text x="2018" y="1362" fill="#ffffff" font-size="22" font-weight="bold">Legend</text>
<text x="2018" y="1390" fill="#94a3b8" font-size="13">Operational role and visual mapping</text>
<circle cx="2032" cy="1427" r="8" fill="#dc2626" />
<text x="2054" y="1432" fill="#94a3b8" font-size="13" font-weight="bold">Incident Trigger</text>
<circle cx="2032" cy="1461" r="8" fill="#7c3aed" />
<text x="2054" y="1466" fill="#94a3b8" font-size="13" font-weight="bold">Recovery Control</text>
<circle cx="2032" cy="1495" r="8" fill="#0891b2" />
<text x="2054" y="1500" fill="#94a3b8" font-size="13" font-weight="bold">Automation Execution</text>
<circle cx="2032" cy="1529" r="8" fill="#16a34a" />
<text x="2054" y="1534" fill="#94a3b8" font-size="13" font-weight="bold">Recovery Validation</text>
</svg>