<svg xmlns="http://www.w3.org/2000/svg" width="1800" height="1000">
<rect width="100%" height="100%" fill="#0f172a" />
<rect x="80" y="100" width="300" height="760" rx="22" fill="#1e293b" opacity="0.25" stroke="#1e293b" stroke-width="2" />
<text x="100" y="134" fill="#ffffff" font-size="22" font-weight="bold">Source Systems</text>
<rect x="420" y="100" width="300" height="760" rx="22" fill="#0f766e" opacity="0.25" stroke="#0f766e" stroke-width="2" />
<text x="440" y="134" fill="#ffffff" font-size="22" font-weight="bold">Telemetry Pipeline</text>
<rect x="760" y="100" width="300" height="760" rx="22" fill="#1e293b" opacity="0.25" stroke="#1e293b" stroke-width="2" />
<text x="780" y="134" fill="#ffffff" font-size="22" font-weight="bold">Monitoring Layer</text>
<rect x="1100" y="100" width="300" height="760" rx="22" fill="#365314" opacity="0.25" stroke="#365314" stroke-width="2" />
<text x="1120" y="134" fill="#ffffff" font-size="22" font-weight="bold">Validation Output</text>
<line x1="340" y1="225" x2="100" y2="365" stroke="#38bdf8" stroke-width="3" />
<text x="220.0" y="283.0" fill="#cbd5e1" font-size="12" text-anchor="middle">connectivity traffic</text>
<line x1="340" y1="365" x2="440" y2="225" stroke="#38bdf8" stroke-width="3" />
<text x="390.0" y="283.0" fill="#cbd5e1" font-size="12" text-anchor="middle">exports metrics</text>
<line x1="680" y1="225" x2="780" y2="225" stroke="#94a3b8" stroke-width="3" />
<text x="730.0" y="213.0" fill="#cbd5e1" font-size="12" text-anchor="middle">monitoring visibility</text>
<line x1="1020" y1="225" x2="1120" y2="225" stroke="#22c55e" stroke-width="3" />
<text x="1070.0" y="213.0" fill="#cbd5e1" font-size="12" text-anchor="middle">operational verification</text>
<rect x="100" y="180" width="240" height="90" rx="16" fill="#1e293b" stroke="#94a3b8" />
<text x="120" y="218" fill="#ffffff" font-size="22">🌐</text>
<text x="160" y="218" fill="#ffffff" font-size="18">Branch Site</text>
<text x="160" y="244" fill="#cbd5e1" font-size="12">network</text>
<rect x="100" y="320" width="240" height="90" rx="16" fill="#1e293b" stroke="#94a3b8" />
<text x="120" y="358" fill="#ffffff" font-size="22">🛜</text>
<text x="160" y="358" fill="#ffffff" font-size="18">VPN Gateway</text>
<text x="160" y="384" fill="#cbd5e1" font-size="12">gateway</text>
<rect x="440" y="180" width="240" height="90" rx="16" fill="#1e293b" stroke="#94a3b8" />
<text x="460" y="218" fill="#ffffff" font-size="22">📡</text>
<text x="500" y="218" fill="#ffffff" font-size="18">Telemetry Collector</text>
<text x="500" y="244" fill="#cbd5e1" font-size="12">telemetry</text>
<rect x="780" y="180" width="240" height="90" rx="16" fill="#1e293b" stroke="#94a3b8" />
<text x="800" y="218" fill="#ffffff" font-size="22">📊</text>
<text x="840" y="218" fill="#ffffff" font-size="18">Monitoring Dashboard</text>
<text x="840" y="244" fill="#cbd5e1" font-size="12">dashboard</text>
<rect x="1120" y="180" width="240" height="90" rx="16" fill="#1e293b" stroke="#94a3b8" />
<text x="1140" y="218" fill="#ffffff" font-size="22">✅</text>
<text x="1180" y="218" fill="#ffffff" font-size="18">Connectivity Validation</text>
<text x="1180" y="244" fill="#cbd5e1" font-size="12">validation</text>
</svg>