<svg xmlns="http://www.w3.org/2000/svg" width="2600" height="1700" viewBox="0 0 2600 1700">
<rect width="100%" height="100%" fill="#0f172a" />

<defs>
<marker id="section-arrow"
markerWidth="12"
markerHeight="12"
refX="10"
refY="6"
orient="auto">
<path d="M0,0 L12,6 L0,12 z" fill="#64748b"/>
</marker>
</defs>

<rect x="60" y="40" width="2480" height="130" rx="28" fill="#1e293b" stroke="#334155" stroke-width="2" />
<text x="94" y="92" fill="#ffffff" font-size="38" font-weight="bold">VPN Connectivity Monitoring</text>
<text x="96" y="128" fill="#cbd5e1" font-size="20">Operational Visibility Board for Hybrid VPN Connectivity</text>
<rect x="2020" y="74" width="220" height="44" rx="22" fill="#1d4ed8" stroke="#60a5fa" stroke-width="1" />
<text x="2130" y="102" fill="#ffffff" font-size="15" text-anchor="middle" font-weight="bold">level-1-visibility</text>
<rect x="2260" y="74" width="220" height="44" rx="22" fill="#14532d" stroke="#4ade80" stroke-width="1" />
<text x="2370" y="102" fill="#ffffff" font-size="15" text-anchor="middle" font-weight="bold">Infrastructure Operations</text>
<text x="96" y="156" fill="#94a3b8" font-size="15">Operational Poster Renderer v2 / Level 1 Visibility Board</text>
<rect x="80" y="220" width="1840" height="220" rx="28" fill="#1e293b" stroke="#2563eb" stroke-width="3" />
<rect x="80" y="220" width="14" height="220" rx="7" fill="#2563eb" />
<text x="114" y="262" fill="#ffffff" font-size="24" font-weight="bold">Observed Infrastructure Domain</text>
<text x="114" y="290" fill="#cbd5e1" font-size="15">Infrastructure and connectivity components monitored by the visibility workflow.</text>
<rect x="1650" y="246" width="220" height="38" rx="19" fill="#020617" stroke="#2563eb" stroke-width="2" />
<text x="1760" y="271" fill="#2563eb" font-size="13" text-anchor="middle" font-weight="bold">3 COMPONENTS</text>
<rect x="114" y="312" width="540" height="112" rx="22" fill="#111827" stroke="#334155" stroke-width="2" />
<circle cx="156" cy="354" r="24" fill="#020617" stroke="#60a5fa" stroke-width="2" />
<text x="156" y="363" font-size="24" text-anchor="middle">🏢</text>
<text x="196" y="346" fill="#ffffff" font-size="20" font-weight="bold">Branch Site</text>
<text x="196" y="374" fill="#cbd5e1" font-size="14">Remote business location</text>
<text x="196" y="402" fill="#94a3b8" font-size="13">site</text>
<rect x="524" y="382" width="104" height="26" rx="13" fill="#020617" stroke="#60a5fa" stroke-width="1" />
<text x="576" y="400" fill="#60a5fa" font-size="12" text-anchor="middle" font-weight="bold">Observed</text>
<rect x="688" y="312" width="540" height="112" rx="22" fill="#111827" stroke="#334155" stroke-width="2" />
<circle cx="730" cy="354" r="24" fill="#020617" stroke="#38bdf8" stroke-width="2" />
<text x="730" y="363" font-size="24" text-anchor="middle">🌐</text>
<text x="770" y="346" fill="#ffffff" font-size="20" font-weight="bold">VPN Gateway</text>
<text x="770" y="374" fill="#cbd5e1" font-size="14">Hybrid connectivity endpoint</text>
<text x="770" y="402" fill="#94a3b8" font-size="13">network</text>
<rect x="1098" y="382" width="104" height="26" rx="13" fill="#020617" stroke="#38bdf8" stroke-width="1" />
<text x="1150" y="400" fill="#38bdf8" font-size="12" text-anchor="middle" font-weight="bold">Monitored</text>
<rect x="1262" y="312" width="540" height="112" rx="22" fill="#111827" stroke="#334155" stroke-width="2" />
<circle cx="1304" cy="354" r="24" fill="#020617" stroke="#93c5fd" stroke-width="2" />
<text x="1304" y="363" font-size="24" text-anchor="middle">☁️</text>
<text x="1344" y="346" fill="#ffffff" font-size="20" font-weight="bold">Cloud Network</text>
<text x="1344" y="374" fill="#cbd5e1" font-size="14">Connected cloud segment</text>
<text x="1344" y="402" fill="#94a3b8" font-size="13">cloud</text>
<rect x="1672" y="382" width="104" height="26" rx="13" fill="#020617" stroke="#93c5fd" stroke-width="1" />
<text x="1724" y="400" fill="#93c5fd" font-size="12" text-anchor="middle" font-weight="bold">Reachable</text>
<rect x="80" y="465" width="1840" height="220" rx="28" fill="#1e293b" stroke="#0891b2" stroke-width="3" />
<rect x="80" y="465" width="14" height="220" rx="7" fill="#0891b2" />
<text x="114" y="507" fill="#ffffff" font-size="24" font-weight="bold">Telemetry Collection &amp; Visibility Platform</text>
<text x="114" y="535" fill="#cbd5e1" font-size="15">Signal collection path used to expose operational connectivity state.</text>
<rect x="1650" y="491" width="220" height="38" rx="19" fill="#020617" stroke="#0891b2" stroke-width="2" />
<text x="1760" y="516" fill="#0891b2" font-size="13" text-anchor="middle" font-weight="bold">SIGNALS ACTIVE</text>
<rect x="114" y="557" width="540" height="112" rx="22" fill="#111827" stroke="#334155" stroke-width="2" />
<circle cx="156" cy="599" r="24" fill="#020617" stroke="#22d3ee" stroke-width="2" />
<text x="156" y="608" font-size="24" text-anchor="middle">📡</text>
<text x="196" y="591" fill="#ffffff" font-size="20" font-weight="bold">Network Probe</text>
<text x="196" y="619" fill="#cbd5e1" font-size="14">Connectivity signal source</text>
<text x="196" y="647" fill="#94a3b8" font-size="13">probe</text>
<rect x="524" y="627" width="104" height="26" rx="13" fill="#020617" stroke="#22d3ee" stroke-width="1" />
<text x="576" y="645" fill="#22d3ee" font-size="12" text-anchor="middle" font-weight="bold">Collecting</text>
<rect x="688" y="557" width="540" height="112" rx="22" fill="#111827" stroke="#334155" stroke-width="2" />
<circle cx="730" cy="599" r="24" fill="#020617" stroke="#06b6d4" stroke-width="2" />
<text x="730" y="608" font-size="24" text-anchor="middle">📈</text>
<text x="770" y="591" fill="#ffffff" font-size="20" font-weight="bold">Metrics Collector</text>
<text x="770" y="619" fill="#cbd5e1" font-size="14">Latency and packet loss metrics</text>
<text x="770" y="647" fill="#94a3b8" font-size="13">telemetry</text>
<rect x="1098" y="627" width="104" height="26" rx="13" fill="#020617" stroke="#06b6d4" stroke-width="1" />
<text x="1150" y="645" fill="#06b6d4" font-size="12" text-anchor="middle" font-weight="bold">Streaming</text>
<rect x="1262" y="557" width="540" height="112" rx="22" fill="#111827" stroke="#334155" stroke-width="2" />
<circle cx="1304" cy="599" r="24" fill="#020617" stroke="#14b8a6" stroke-width="2" />
<text x="1304" y="608" font-size="24" text-anchor="middle">🧾</text>
<text x="1344" y="591" fill="#ffffff" font-size="20" font-weight="bold">Log Pipeline</text>
<text x="1344" y="619" fill="#cbd5e1" font-size="14">VPN tunnel event forwarding</text>
<text x="1344" y="647" fill="#94a3b8" font-size="13">logging</text>
<rect x="1672" y="627" width="104" height="26" rx="13" fill="#020617" stroke="#14b8a6" stroke-width="1" />
<text x="1724" y="645" fill="#14b8a6" font-size="12" text-anchor="middle" font-weight="bold">Active</text>
<rect x="80" y="710" width="1840" height="220" rx="28" fill="#1e293b" stroke="#16a34a" stroke-width="3" />
<rect x="80" y="710" width="14" height="220" rx="7" fill="#16a34a" />
<text x="114" y="752" fill="#ffffff" font-size="24" font-weight="bold">Operational Visibility Outputs</text>
<text x="114" y="780" fill="#cbd5e1" font-size="15">Reviewer-facing monitoring outputs for infrastructure operations.</text>
<rect x="1650" y="736" width="220" height="38" rx="19" fill="#020617" stroke="#16a34a" stroke-width="2" />
<text x="1760" y="761" fill="#16a34a" font-size="13" text-anchor="middle" font-weight="bold">VISIBILITY READY</text>
<rect x="114" y="802" width="540" height="112" rx="22" fill="#111827" stroke="#334155" stroke-width="2" />
<circle cx="156" cy="844" r="24" fill="#020617" stroke="#22c55e" stroke-width="2" />
<text x="156" y="853" font-size="24" text-anchor="middle">📊</text>
<text x="196" y="836" fill="#ffffff" font-size="20" font-weight="bold">Connectivity Dashboard</text>
<text x="196" y="864" fill="#cbd5e1" font-size="14">VPN status and tunnel health</text>
<text x="196" y="892" fill="#94a3b8" font-size="13">dashboard</text>
<rect x="524" y="872" width="104" height="26" rx="13" fill="#020617" stroke="#22c55e" stroke-width="1" />
<text x="576" y="890" fill="#22c55e" font-size="12" text-anchor="middle" font-weight="bold">Visible</text>
<rect x="688" y="802" width="540" height="112" rx="22" fill="#111827" stroke="#334155" stroke-width="2" />
<circle cx="730" cy="844" r="24" fill="#020617" stroke="#84cc16" stroke-width="2" />
<text x="730" y="853" font-size="24" text-anchor="middle">🚨</text>
<text x="770" y="836" fill="#ffffff" font-size="20" font-weight="bold">Alert View</text>
<text x="770" y="864" fill="#cbd5e1" font-size="14">Connectivity degradation alerts</text>
<text x="770" y="892" fill="#94a3b8" font-size="13">alert</text>
<rect x="1098" y="872" width="104" height="26" rx="13" fill="#020617" stroke="#84cc16" stroke-width="1" />
<text x="1150" y="890" fill="#84cc16" font-size="12" text-anchor="middle" font-weight="bold">Ready</text>
<rect x="1262" y="802" width="540" height="112" rx="22" fill="#111827" stroke="#334155" stroke-width="2" />
<circle cx="1304" cy="844" r="24" fill="#020617" stroke="#4ade80" stroke-width="2" />
<text x="1304" y="853" font-size="24" text-anchor="middle">🖥️</text>
<text x="1344" y="836" fill="#ffffff" font-size="20" font-weight="bold">Operations Console</text>
<text x="1344" y="864" fill="#cbd5e1" font-size="14">Infrastructure monitoring view</text>
<text x="1344" y="892" fill="#94a3b8" font-size="13">console</text>
<rect x="1672" y="872" width="104" height="26" rx="13" fill="#020617" stroke="#4ade80" stroke-width="1" />
<text x="1724" y="890" fill="#4ade80" font-size="12" text-anchor="middle" font-weight="bold">Available</text>
<rect x="80" y="955" width="1840" height="220" rx="28" fill="#1e293b" stroke="#ca8a04" stroke-width="3" />
<rect x="80" y="955" width="14" height="220" rx="7" fill="#ca8a04" />
<text x="114" y="997" fill="#ffffff" font-size="24" font-weight="bold">Validation &amp; Current Status</text>
<text x="114" y="1025" fill="#cbd5e1" font-size="15">Operational validation results confirming visibility readiness.</text>
<rect x="1650" y="981" width="220" height="38" rx="19" fill="#020617" stroke="#ca8a04" stroke-width="2" />
<text x="1760" y="1006" fill="#ca8a04" font-size="13" text-anchor="middle" font-weight="bold">STATUS VERIFIED</text>
<rect x="114" y="1047" width="540" height="112" rx="22" fill="#111827" stroke="#334155" stroke-width="2" />
<circle cx="156" cy="1089" r="24" fill="#020617" stroke="#22c55e" stroke-width="2" />
<text x="156" y="1098" font-size="24" text-anchor="middle">✅</text>
<text x="196" y="1081" fill="#ffffff" font-size="20" font-weight="bold">Tunnel Health</text>
<text x="196" y="1109" fill="#cbd5e1" font-size="14">VPN tunnel state validated</text>
<text x="196" y="1137" fill="#94a3b8" font-size="13">validation</text>
<rect x="524" y="1117" width="104" height="26" rx="13" fill="#020617" stroke="#22c55e" stroke-width="1" />
<text x="576" y="1135" fill="#22c55e" font-size="12" text-anchor="middle" font-weight="bold">Healthy</text>
<rect x="688" y="1047" width="540" height="112" rx="22" fill="#111827" stroke="#334155" stroke-width="2" />
<circle cx="730" cy="1089" r="24" fill="#020617" stroke="#10b981" stroke-width="2" />
<text x="730" y="1098" font-size="24" text-anchor="middle">🟢</text>
<text x="770" y="1081" fill="#ffffff" font-size="20" font-weight="bold">Telemetry Continuity</text>
<text x="770" y="1109" fill="#cbd5e1" font-size="14">Signals arriving continuously</text>
<text x="770" y="1137" fill="#94a3b8" font-size="13">validation</text>
<rect x="1098" y="1117" width="104" height="26" rx="13" fill="#020617" stroke="#10b981" stroke-width="1" />
<text x="1150" y="1135" fill="#10b981" font-size="12" text-anchor="middle" font-weight="bold">Normal</text>
<rect x="1262" y="1047" width="540" height="112" rx="22" fill="#111827" stroke="#334155" stroke-width="2" />
<circle cx="1304" cy="1089" r="24" fill="#020617" stroke="#facc15" stroke-width="2" />
<text x="1304" y="1098" font-size="24" text-anchor="middle">🔎</text>
<text x="1344" y="1081" fill="#ffffff" font-size="20" font-weight="bold">Visibility Coverage</text>
<text x="1344" y="1109" fill="#cbd5e1" font-size="14">Dashboard reflects monitored state</text>
<text x="1344" y="1137" fill="#94a3b8" font-size="13">validation</text>
<rect x="1672" y="1117" width="104" height="26" rx="13" fill="#020617" stroke="#facc15" stroke-width="1" />
<text x="1724" y="1135" fill="#facc15" font-size="12" text-anchor="middle" font-weight="bold">Verified</text>
<line x1="1000.0" y1="450" x2="1000.0" y2="437" stroke="#475569" stroke-width="2" stroke-linecap="round" stroke-dasharray="8 8" opacity="0.7" />
<polygon points="991.0,439 1009.0,439 1000.0,455" fill="#64748b" opacity="0.85" />
<line x1="1000.0" y1="695" x2="1000.0" y2="682" stroke="#475569" stroke-width="2" stroke-linecap="round" stroke-dasharray="8 8" opacity="0.7" />
<polygon points="991.0,684 1009.0,684 1000.0,700" fill="#64748b" opacity="0.85" />
<line x1="1000.0" y1="940" x2="1000.0" y2="927" stroke="#475569" stroke-width="2" stroke-linecap="round" stroke-dasharray="8 8" opacity="0.7" />
<polygon points="991.0,929 1009.0,929 1000.0,945" fill="#64748b" opacity="0.85" />
<rect x="1990" y="200" width="550" height="760" rx="30" fill="#1e293b" stroke="#334155" stroke-width="2" />
<text x="2024" y="248" fill="#ffffff" font-size="26" font-weight="bold">Operational Workflow</text>
<text x="2024" y="278" fill="#94a3b8" font-size="15">Visibility lifecycle execution rail</text>
<line x1="2062" y1="361" x2="2062" y2="829" stroke="#475569" stroke-width="3" stroke-linecap="round" />
<circle cx="2062" cy="361" r="20" fill="#020617" stroke="#84cc16" stroke-width="3" />
<text x="2062" y="368" fill="#84cc16" font-size="17" text-anchor="middle" font-weight="bold">1</text>
<rect x="2090" y="325" width="408" height="118" rx="22" fill="#111827" stroke="#334155" stroke-width="2" />
<text x="2116" y="361" fill="#ffffff" font-size="21" font-weight="bold">Detect</text>
<text x="2116" y="391" fill="#cbd5e1" font-size="13">Observe VPN gateway and connectivity state.</text>
<rect x="2116" y="407" width="112" height="24" rx="12" fill="#020617" stroke="#84cc16" stroke-width="1" />
<text x="2172" y="424" fill="#84cc16" font-size="11" text-anchor="middle" font-weight="bold">Ready</text>
<circle cx="2062" cy="517" r="20" fill="#020617" stroke="#14b8a6" stroke-width="3" />
<text x="2062" y="524" fill="#14b8a6" font-size="17" text-anchor="middle" font-weight="bold">2</text>
<rect x="2090" y="481" width="408" height="118" rx="22" fill="#111827" stroke="#334155" stroke-width="2" />
<text x="2116" y="517" fill="#ffffff" font-size="21" font-weight="bold">Collect</text>
<text x="2116" y="547" fill="#cbd5e1" font-size="13">Collect metrics, logs, and probe signals.</text>
<rect x="2116" y="563" width="112" height="24" rx="12" fill="#020617" stroke="#14b8a6" stroke-width="1" />
<text x="2172" y="580" fill="#14b8a6" font-size="11" text-anchor="middle" font-weight="bold">Active</text>
<circle cx="2062" cy="673" r="20" fill="#020617" stroke="#22c55e" stroke-width="3" />
<text x="2062" y="680" fill="#22c55e" font-size="17" text-anchor="middle" font-weight="bold">3</text>
<rect x="2090" y="637" width="408" height="118" rx="22" fill="#111827" stroke="#334155" stroke-width="2" />
<text x="2116" y="673" fill="#ffffff" font-size="21" font-weight="bold">Visualize</text>
<text x="2116" y="703" fill="#cbd5e1" font-size="13">Expose status through monitoring dashboards.</text>
<rect x="2116" y="719" width="112" height="24" rx="12" fill="#020617" stroke="#22c55e" stroke-width="1" />
<text x="2172" y="736" fill="#22c55e" font-size="11" text-anchor="middle" font-weight="bold">Visible</text>
<circle cx="2062" cy="829" r="20" fill="#020617" stroke="#facc15" stroke-width="3" />
<text x="2062" y="836" fill="#facc15" font-size="17" text-anchor="middle" font-weight="bold">4</text>
<rect x="2090" y="793" width="408" height="118" rx="22" fill="#111827" stroke="#334155" stroke-width="2" />
<text x="2116" y="829" fill="#ffffff" font-size="21" font-weight="bold">Validate</text>
<text x="2116" y="859" fill="#cbd5e1" font-size="13">Confirm operational visibility and health state.</text>
<rect x="2116" y="875" width="112" height="24" rx="12" fill="#020617" stroke="#facc15" stroke-width="1" />
<text x="2172" y="892" fill="#facc15" font-size="11" text-anchor="middle" font-weight="bold">Verified</text>
<rect x="60" y="1235" width="1880" height="320" rx="30" fill="#1e293b" stroke="#334155" stroke-width="2" />
<text x="94" y="1279" fill="#ffffff" font-size="26" font-weight="bold">Operational Status Dashboard</text>
<text x="94" y="1309" fill="#94a3b8" font-size="15">Visibility health, signal continuity, and validation status</text>
<rect x="94" y="1331" width="390" height="112" rx="26" fill="#111827" stroke="#22c55e" stroke-width="3" />
<text x="118" y="1367" fill="#cbd5e1" font-size="15">Overall Visibility Health</text>
<text x="118" y="1413" fill="#ffffff" font-size="34" font-weight="bold">Healthy</text>
<circle cx="430" cy="1393" r="34" fill="#020617" stroke="#22c55e" stroke-width="5" />
<text x="430" y="1404" fill="#22c55e" font-size="28" text-anchor="middle" font-weight="bold">✓</text>
<rect x="515" y="1331" width="290" height="112" rx="22" fill="#111827" stroke="#334155" stroke-width="2" />
<circle cx="775" cy="1361" r="9" fill="#38bdf8" />
<text x="537" y="1369" fill="#cbd5e1" font-size="14">Telemetry</text>
<text x="537" y="1413" fill="#ffffff" font-size="26" font-weight="bold">Streaming</text>
<rect x="537" y="1421" width="246" height="6" rx="3" fill="#020617" />
<rect x="537" y="1421" width="201" height="6" rx="3" fill="#38bdf8" />
<rect x="833" y="1331" width="290" height="112" rx="22" fill="#111827" stroke="#334155" stroke-width="2" />
<circle cx="1093" cy="1361" r="9" fill="#38bdf8" />
<text x="855" y="1369" fill="#cbd5e1" font-size="14">Loss</text>
<text x="855" y="1413" fill="#ffffff" font-size="26" font-weight="bold">0.2%</text>
<rect x="855" y="1421" width="246" height="6" rx="3" fill="#020617" />
<rect x="855" y="1421" width="201" height="6" rx="3" fill="#38bdf8" />
<rect x="1151" y="1331" width="290" height="112" rx="22" fill="#111827" stroke="#334155" stroke-width="2" />
<circle cx="1411" cy="1361" r="9" fill="#38bdf8" />
<text x="1173" y="1369" fill="#cbd5e1" font-size="14">Latency</text>
<text x="1173" y="1413" fill="#ffffff" font-size="26" font-weight="bold">18 ms</text>
<rect x="1173" y="1421" width="246" height="6" rx="3" fill="#020617" />
<rect x="1173" y="1421" width="201" height="6" rx="3" fill="#38bdf8" />
<rect x="1469" y="1331" width="290" height="112" rx="22" fill="#111827" stroke="#334155" stroke-width="2" />
<circle cx="1729" cy="1361" r="9" fill="#facc15" />
<text x="1491" y="1369" fill="#cbd5e1" font-size="14">Dashboard</text>
<text x="1491" y="1413" fill="#ffffff" font-size="26" font-weight="bold">Verified</text>
<rect x="1491" y="1421" width="246" height="6" rx="3" fill="#020617" />
<rect x="1491" y="1421" width="201" height="6" rx="3" fill="#facc15" />
<rect x="515" y="1459" width="1375" height="58" rx="18" fill="#020617" stroke="#334155" stroke-width="1" />
<text x="535" y="1495" fill="#22c55e" font-size="13" font-weight="bold">Validation Result</text>
<text x="693" y="1495" fill="#cbd5e1" font-size="13">All monitored VPN connectivity signals are visible, streaming, and operationally validated.</text>
<rect x="1990" y="990" width="550" height="300" rx="30" fill="#1e293b" stroke="#334155" stroke-width="2" />
<text x="2024" y="1034" fill="#ffffff" font-size="24" font-weight="bold">Visibility Coverage Summary</text>
<text x="2024" y="1062" fill="#94a3b8" font-size="14">Scenario visibility scope and validation coverage</text>
<rect x="2390" y="1018" width="104" height="36" rx="18" fill="#020617" stroke="#38bdf8" stroke-width="1" />
<text x="2442" y="1042" fill="#38bdf8" font-size="13" text-anchor="middle" font-weight="bold">12 SIGNALS</text>
<rect x="2024" y="1090" width="214" height="68" rx="20" fill="#111827" stroke="#334155" stroke-width="2" />
<text x="2044" y="1120" fill="#cbd5e1" font-size="13">Monitored Domains</text>
<text x="2044" y="1148" fill="#ffffff" font-size="24" font-weight="bold">3</text>
<rect x="2254" y="1090" width="214" height="68" rx="20" fill="#111827" stroke="#334155" stroke-width="2" />
<text x="2274" y="1120" fill="#cbd5e1" font-size="13">Signal Sources</text>
<text x="2274" y="1148" fill="#ffffff" font-size="24" font-weight="bold">3</text>
<rect x="2024" y="1174" width="214" height="68" rx="20" fill="#111827" stroke="#334155" stroke-width="2" />
<text x="2044" y="1204" fill="#cbd5e1" font-size="13">Output Views</text>
<text x="2044" y="1232" fill="#ffffff" font-size="24" font-weight="bold">3</text>
<rect x="2254" y="1174" width="214" height="68" rx="20" fill="#111827" stroke="#334155" stroke-width="2" />
<text x="2274" y="1204" fill="#cbd5e1" font-size="13">Validation Checks</text>
<text x="2274" y="1232" fill="#ffffff" font-size="24" font-weight="bold">3</text>
<rect x="1990" y="1320" width="550" height="235" rx="30" fill="#1e293b" stroke="#334155" stroke-width="2" />
<text x="2024" y="1364" fill="#ffffff" font-size="24" font-weight="bold">Legend</text>
<text x="2024" y="1394" fill="#94a3b8" font-size="13">Visual semantics</text>
<rect x="2024" y="1402" width="22" height="22" rx="6" fill="#2563eb" />
<text x="2060" y="1419" fill="#cbd5e1" font-size="13">Observed Infrastructure</text>
<rect x="2024" y="1432" width="22" height="22" rx="6" fill="#0891b2" />
<text x="2060" y="1449" fill="#cbd5e1" font-size="13">Telemetry Collection</text>
<rect x="2024" y="1462" width="22" height="22" rx="6" fill="#16a34a" />
<text x="2060" y="1479" fill="#cbd5e1" font-size="13">Visibility Output</text>
<rect x="2024" y="1492" width="22" height="22" rx="6" fill="#ca8a04" />
<text x="2060" y="1509" fill="#cbd5e1" font-size="13">Validation Status</text>
</svg>