<svg xmlns="http://www.w3.org/2000/svg" width="1900" height="1000">
<rect width="100%" height="100%" fill="#0f172a" />
<rect x="40" y="20" width="1820" height="80" fill="#334155" opacity="0.15" rx="18" />
<text x="70" y="68" fill="#ffffff" font-size="24" font-weight="bold">Signal Sources</text>
<rect x="40" y="130" width="1820" height="80" fill="#5b21b6" opacity="0.15" rx="18" />
<text x="70" y="178" fill="#ffffff" font-size="24" font-weight="bold">Correlation</text>
<rect x="40" y="240" width="1820" height="80" fill="#334155" opacity="0.15" rx="18" />
<text x="70" y="288" fill="#ffffff" font-size="24" font-weight="bold">Dependency Analysis</text>
<rect x="40" y="350" width="1820" height="80" fill="#334155" opacity="0.15" rx="18" />
<text x="70" y="398" fill="#ffffff" font-size="24" font-weight="bold">Operational Insight</text>
<rect x="40" y="140" width="340" height="620" rx="22" fill="#1e293b" opacity="0.25" stroke="#1e293b" stroke-width="2" />
<text x="60" y="174" fill="#ffffff" font-size="22" font-weight="bold">Signal Sources</text>
<rect x="720" y="260" width="340" height="260" rx="22" fill="#5b21b6" opacity="0.25" stroke="#5b21b6" stroke-width="2" />
<text x="740" y="294" fill="#ffffff" font-size="22" font-weight="bold">Correlation Layer</text>
<rect x="1180" y="260" width="320" height="260" rx="22" fill="#5b21b6" opacity="0.25" stroke="#5b21b6" stroke-width="2" />
<text x="1200" y="294" fill="#ffffff" font-size="22" font-weight="bold">Dependency Analysis</text>
<rect x="1540" y="260" width="260" height="260" rx="22" fill="#365314" opacity="0.25" stroke="#365314" stroke-width="2" />
<text x="1560" y="294" fill="#ffffff" font-size="22" font-weight="bold">Operational Insight</text>
<line x1="360" y1="225" x2="850" y2="405" stroke="#38bdf8" stroke-width="3" />
<text x="605.0" y="303.0" fill="#cbd5e1" font-size="12" text-anchor="middle">branch anomalies</text>
<line x1="360" y1="405" x2="850" y2="405" stroke="#38bdf8" stroke-width="3" />
<text x="605.0" y="393.0" fill="#cbd5e1" font-size="12" text-anchor="middle">regional anomalies</text>
<line x1="360" y1="585" x2="850" y2="405" stroke="#38bdf8" stroke-width="3" />
<text x="605.0" y="483.0" fill="#cbd5e1" font-size="12" text-anchor="middle">telemetry aggregation</text>
<line x1="1090" y1="405" x2="1250" y2="405" stroke="#a78bfa" stroke-width="3" />
<text x="1170.0" y="393.0" fill="#cbd5e1" font-size="12" text-anchor="middle">dependency reasoning</text>
<line x1="1490" y1="405" x2="1550" y2="405" stroke="#22c55e" stroke-width="3" />
<text x="1520.0" y="393.0" fill="#cbd5e1" font-size="12" text-anchor="middle">operational impact analysis</text>
<rect x="120" y="180" width="240" height="90" rx="16" fill="#0f766e" opacity="0.35" stroke="#cbd5e1" />
<text x="140" y="218" fill="#ffffff" font-size="22">🌐</text>
<text x="180" y="218" fill="#ffffff" font-size="18">Branch Region</text>
<text x="180" y="244" fill="#cbd5e1" font-size="12">network</text>
<rect x="120" y="180" width="240" height="90" rx="16" fill="#1e293b" stroke="#94a3b8" />
<text x="140" y="218" fill="#ffffff" font-size="22"></text>
<text x="180" y="218" fill="#ffffff" font-size="18">Branch Region</text>
<text x="180" y="244" fill="#cbd5e1" font-size="12">network</text>
<rect x="120" y="360" width="240" height="90" rx="16" fill="#0f766e" opacity="0.35" stroke="#cbd5e1" />
<text x="140" y="398" fill="#ffffff" font-size="22">🌐</text>
<text x="180" y="398" fill="#ffffff" font-size="18">Cloud Region</text>
<text x="180" y="424" fill="#cbd5e1" font-size="12">network</text>
<rect x="120" y="360" width="240" height="90" rx="16" fill="#1e293b" stroke="#94a3b8" />
<text x="140" y="398" fill="#ffffff" font-size="22"></text>
<text x="180" y="398" fill="#ffffff" font-size="18">Cloud Region</text>
<text x="180" y="424" fill="#cbd5e1" font-size="12">network</text>
<rect x="120" y="540" width="240" height="90" rx="16" fill="#0369a1" opacity="0.35" stroke="#cbd5e1" />
<text x="140" y="578" fill="#ffffff" font-size="22">📡</text>
<text x="180" y="578" fill="#ffffff" font-size="18">Telemetry Stream</text>
<text x="180" y="604" fill="#cbd5e1" font-size="12">telemetry</text>
<rect x="120" y="540" width="240" height="90" rx="16" fill="#1e293b" stroke="#94a3b8" />
<text x="140" y="578" fill="#ffffff" font-size="22"></text>
<text x="180" y="578" fill="#ffffff" font-size="18">Telemetry Stream</text>
<text x="180" y="604" fill="#cbd5e1" font-size="12">telemetry</text>
<rect x="850" y="360" width="240" height="90" rx="16" fill="#5b21b6" opacity="0.35" stroke="#cbd5e1" />
<text x="870" y="398" fill="#ffffff" font-size="22">🧠</text>
<text x="910" y="398" fill="#ffffff" font-size="18">Correlation Engine</text>
<text x="910" y="424" fill="#cbd5e1" font-size="12">analysis</text>
<rect x="850" y="360" width="240" height="90" rx="16" fill="#1e293b" stroke="#94a3b8" />
<text x="870" y="398" fill="#ffffff" font-size="22"></text>
<text x="910" y="398" fill="#ffffff" font-size="18">Correlation Engine</text>
<text x="910" y="424" fill="#cbd5e1" font-size="12">analysis</text>
<rect x="1250" y="360" width="240" height="90" rx="16" fill="#5b21b6" opacity="0.35" stroke="#cbd5e1" />
<text x="1270" y="398" fill="#ffffff" font-size="22">🧠</text>
<text x="1310" y="398" fill="#ffffff" font-size="18">Dependency Mapping</text>
<text x="1310" y="424" fill="#cbd5e1" font-size="12">analysis</text>
<rect x="1250" y="360" width="240" height="90" rx="16" fill="#1e293b" stroke="#94a3b8" />
<text x="1270" y="398" fill="#ffffff" font-size="22"></text>
<text x="1310" y="398" fill="#ffffff" font-size="18">Dependency Mapping</text>
<text x="1310" y="424" fill="#cbd5e1" font-size="12">analysis</text>
<rect x="1550" y="360" width="240" height="90" rx="16" fill="#365314" opacity="0.35" stroke="#cbd5e1" />
<text x="1570" y="398" fill="#ffffff" font-size="22">📊</text>
<text x="1610" y="398" fill="#ffffff" font-size="18">Operational Insight</text>
<text x="1610" y="424" fill="#cbd5e1" font-size="12">dashboard</text>
<rect x="1550" y="360" width="240" height="90" rx="16" fill="#1e293b" stroke="#94a3b8" />
<text x="1570" y="398" fill="#ffffff" font-size="22"></text>
<text x="1610" y="398" fill="#ffffff" font-size="18">Operational Insight</text>
<text x="1610" y="424" fill="#cbd5e1" font-size="12">dashboard</text>
</svg>