<svg xmlns="http://www.w3.org/2000/svg" width="1900" height="1000">
<rect width="100%" height="100%" fill="#0f172a" />
<rect x="40" y="20" width="1820" height="80" fill="#0f766e" opacity="0.15" rx="18" />
<text x="70" y="68" fill="#ffffff" font-size="24" font-weight="bold">Detection</text>
<rect x="40" y="130" width="1820" height="80" fill="#5b21b6" opacity="0.15" rx="18" />
<text x="70" y="178" fill="#ffffff" font-size="24" font-weight="bold">Correlation</text>
<rect x="40" y="240" width="1820" height="80" fill="#7c2d12" opacity="0.15" rx="18" />
<text x="70" y="288" fill="#ffffff" font-size="24" font-weight="bold">Decision</text>
<rect x="40" y="350" width="1820" height="80" fill="#b45309" opacity="0.15" rx="18" />
<text x="70" y="398" fill="#ffffff" font-size="24" font-weight="bold">Recovery</text>
<rect x="40" y="460" width="1820" height="80" fill="#166534" opacity="0.15" rx="18" />
<text x="70" y="508" fill="#ffffff" font-size="24" font-weight="bold">Validation</text>
<rect x="80" y="100" width="300" height="760" rx="22" fill="#0f766e" opacity="0.25" stroke="#0f766e" stroke-width="2" />
<text x="100" y="134" fill="#ffffff" font-size="22" font-weight="bold">Detection Layer</text>
<rect x="420" y="100" width="300" height="760" rx="22" fill="#5b21b6" opacity="0.25" stroke="#5b21b6" stroke-width="2" />
<text x="440" y="134" fill="#ffffff" font-size="22" font-weight="bold">Analysis Layer</text>
<rect x="760" y="100" width="300" height="760" rx="22" fill="#b45309" opacity="0.25" stroke="#b45309" stroke-width="2" />
<text x="780" y="134" fill="#ffffff" font-size="22" font-weight="bold">Orchestration Layer</text>
<rect x="1100" y="100" width="300" height="760" rx="22" fill="#365314" opacity="0.25" stroke="#365314" stroke-width="2" />
<text x="1120" y="134" fill="#ffffff" font-size="22" font-weight="bold">Validation Layer</text>
<line x1="340" y1="225" x2="440" y2="225" stroke="#38bdf8" stroke-width="3" />
<text x="390.0" y="213.0" fill="#cbd5e1" font-size="12" text-anchor="middle">anomaly forwarded</text>
<line x1="680" y1="225" x2="780" y2="225" stroke="#a78bfa" stroke-width="3" />
<text x="730.0" y="213.0" fill="#cbd5e1" font-size="12" text-anchor="middle">recovery decision required</text>
<line x1="1020" y1="225" x2="780" y2="365" stroke="#f59e0b" stroke-width="3" />
<text x="900.0" y="283.0" fill="#cbd5e1" font-size="12" text-anchor="middle">recovery initiated</text>
<line x1="1020" y1="365" x2="1120" y2="225" stroke="#22c55e" stroke-width="3" />
<text x="1070.0" y="283.0" fill="#cbd5e1" font-size="12" text-anchor="middle">recovery verification</text>
<rect x="100" y="180" width="240" height="90" rx="16" fill="#0369a1" opacity="0.35" stroke="#cbd5e1" />
<text x="120" y="218" fill="#ffffff" font-size="22">📡</text>
<text x="160" y="218" fill="#ffffff" font-size="18">Tunnel Failure Alert</text>
<text x="160" y="244" fill="#cbd5e1" font-size="12">telemetry</text>
<rect x="100" y="180" width="240" height="90" rx="16" fill="#1e293b" stroke="#94a3b8" />
<text x="120" y="218" fill="#ffffff" font-size="22"></text>
<text x="160" y="218" fill="#ffffff" font-size="18">Tunnel Failure Alert</text>
<text x="160" y="244" fill="#cbd5e1" font-size="12">telemetry</text>
<rect x="440" y="180" width="240" height="90" rx="16" fill="#5b21b6" opacity="0.35" stroke="#cbd5e1" />
<text x="460" y="218" fill="#ffffff" font-size="22">🧠</text>
<text x="500" y="218" fill="#ffffff" font-size="18">Correlation Engine</text>
<text x="500" y="244" fill="#cbd5e1" font-size="12">analysis</text>
<rect x="440" y="180" width="240" height="90" rx="16" fill="#1e293b" stroke="#94a3b8" />
<text x="460" y="218" fill="#ffffff" font-size="22"></text>
<text x="500" y="218" fill="#ffffff" font-size="18">Correlation Engine</text>
<text x="500" y="244" fill="#cbd5e1" font-size="12">analysis</text>
<rect x="780" y="180" width="240" height="90" rx="16" fill="#b45309" opacity="0.35" stroke="#cbd5e1" />
<text x="800" y="218" fill="#ffffff" font-size="22">⚙️</text>
<text x="840" y="218" fill="#ffffff" font-size="18">Recovery Controller</text>
<text x="840" y="244" fill="#cbd5e1" font-size="12">orchestration</text>
<rect x="780" y="180" width="240" height="90" rx="16" fill="#1e293b" stroke="#94a3b8" />
<text x="800" y="218" fill="#ffffff" font-size="22"></text>
<text x="840" y="218" fill="#ffffff" font-size="18">Recovery Controller</text>
<text x="840" y="244" fill="#cbd5e1" font-size="12">orchestration</text>
<rect x="780" y="320" width="240" height="90" rx="16" fill="#b45309" opacity="0.35" stroke="#cbd5e1" />
<text x="800" y="358" fill="#ffffff" font-size="22">⬜</text>
<text x="840" y="358" fill="#ffffff" font-size="18">Tunnel Recovery Workflow</text>
<text x="840" y="384" fill="#cbd5e1" font-size="12">automation</text>
<rect x="780" y="320" width="240" height="90" rx="16" fill="#1e293b" stroke="#94a3b8" />
<text x="800" y="358" fill="#ffffff" font-size="22"></text>
<text x="840" y="358" fill="#ffffff" font-size="18">Tunnel Recovery Workflow</text>
<text x="840" y="384" fill="#cbd5e1" font-size="12">automation</text>
<rect x="1120" y="180" width="240" height="90" rx="16" fill="#365314" opacity="0.35" stroke="#cbd5e1" />
<text x="1140" y="218" fill="#ffffff" font-size="22">✅</text>
<text x="1180" y="218" fill="#ffffff" font-size="18">Post Recovery Validation</text>
<text x="1180" y="244" fill="#cbd5e1" font-size="12">validation</text>
<rect x="1120" y="180" width="240" height="90" rx="16" fill="#1e293b" stroke="#94a3b8" />
<text x="1140" y="218" fill="#ffffff" font-size="22"></text>
<text x="1180" y="218" fill="#ffffff" font-size="18">Post Recovery Validation</text>
<text x="1180" y="244" fill="#cbd5e1" font-size="12">validation</text>
<rect x="1460" y="760" width="360" height="180" rx="20" fill="#111827" stroke="#38bdf8" stroke-width="2" />
<text x="1480" y="796" fill="#ffffff" font-size="20" font-weight="bold">Recovery Status</text>
<text x="1484" y="830" fill="#cbd5e1" font-size="14">Tunnel State: Recovered</text>
<text x="1484" y="856" fill="#cbd5e1" font-size="14">Recovery Workflow: Completed</text>
<text x="1484" y="882" fill="#cbd5e1" font-size="14">Validation State: Successful</text>
</svg>