<svg xmlns="http://www.w3.org/2000/svg" width="1900" height="1000">
<rect width="100%" height="100%" fill="#0f172a" />
<rect x="40" y="20" width="1820" height="80" fill="#7f1d1d" opacity="0.15" rx="18" />
<text x="70" y="68" fill="#ffffff" font-size="24" font-weight="bold">Failure Domain</text>
<rect x="40" y="130" width="1820" height="80" fill="#1d4ed8" opacity="0.15" rx="18" />
<text x="70" y="178" fill="#ffffff" font-size="24" font-weight="bold">Coordination</text>
<rect x="40" y="240" width="1820" height="80" fill="#b91c1c" opacity="0.15" rx="18" />
<text x="70" y="288" fill="#ffffff" font-size="24" font-weight="bold">Failover</text>
<rect x="40" y="350" width="1820" height="80" fill="#15803d" opacity="0.15" rx="18" />
<text x="70" y="398" fill="#ffffff" font-size="24" font-weight="bold">Survivability</text>
<rect x="40" y="460" width="1820" height="80" fill="#166534" opacity="0.15" rx="18" />
<text x="70" y="508" fill="#ffffff" font-size="24" font-weight="bold">Validation</text>
<rect x="40" y="260" width="340" height="260" rx="22" fill="#1e293b" opacity="0.25" stroke="#1e293b" stroke-width="2" />
<text x="60" y="294" fill="#ffffff" font-size="22" font-weight="bold">Regional Failure Domain</text>
<rect x="620" y="260" width="340" height="260" rx="22" fill="#166534" opacity="0.25" stroke="#166534" stroke-width="2" />
<text x="640" y="294" fill="#ffffff" font-size="22" font-weight="bold">Coordination Layer</text>
<rect x="1120" y="140" width="420" height="520" rx="22" fill="#166534" opacity="0.25" stroke="#166534" stroke-width="2" />
<text x="1140" y="174" fill="#ffffff" font-size="22" font-weight="bold">Failover Layer</text>
<rect x="1600" y="260" width="260" height="260" rx="22" fill="#365314" opacity="0.25" stroke="#365314" stroke-width="2" />
<text x="1620" y="294" fill="#ffffff" font-size="22" font-weight="bold">Survivability Validation</text>
<line x1="360" y1="405" x2="700" y2="405" stroke="#a78bfa" stroke-width="3" />
<text x="530.0" y="393.0" fill="#cbd5e1" font-size="12" text-anchor="middle">regional degradation detected</text>
<line x1="940" y1="405" x2="1250" y2="265" stroke="#f59e0b" stroke-width="3" />
<text x="1095.0" y="323.0" fill="#cbd5e1" font-size="12" text-anchor="middle">failover coordination initiated</text>
<line x1="1490" y1="265" x2="1250" y2="265" stroke="#ef4444" stroke-width="3" />
<text x="1370.0" y="253.0" fill="#cbd5e1" font-size="12" text-anchor="middle">workload migration</text>
<line x1="1490" y1="265" x2="1550" y2="405" stroke="#22c55e" stroke-width="3" />
<text x="1520.0" y="323.0" fill="#cbd5e1" font-size="12" text-anchor="middle">survivability verification</text>
<rect x="120" y="360" width="240" height="90" rx="16" fill="#7c3aed" opacity="0.35" stroke="#cbd5e1" />
<text x="140" y="398" fill="#ffffff" font-size="22">☸️</text>
<text x="180" y="398" fill="#ffffff" font-size="18">Primary Cluster</text>
<text x="180" y="424" fill="#cbd5e1" font-size="12">cluster</text>
<rect x="120" y="360" width="240" height="90" rx="16" fill="#1e293b" stroke="#94a3b8" />
<text x="140" y="398" fill="#ffffff" font-size="22"></text>
<text x="180" y="398" fill="#ffffff" font-size="18">Primary Cluster</text>
<text x="180" y="424" fill="#cbd5e1" font-size="12">cluster</text>
<rect x="1250" y="220" width="240" height="90" rx="16" fill="#7c3aed" opacity="0.35" stroke="#cbd5e1" />
<text x="1270" y="258" fill="#ffffff" font-size="22">☸️</text>
<text x="1310" y="258" fill="#ffffff" font-size="18">Secondary Cluster</text>
<text x="1310" y="284" fill="#cbd5e1" font-size="12">cluster</text>
<rect x="1250" y="220" width="240" height="90" rx="16" fill="#1e293b" stroke="#94a3b8" />
<text x="1270" y="258" fill="#ffffff" font-size="22"></text>
<text x="1310" y="258" fill="#ffffff" font-size="18">Secondary Cluster</text>
<text x="1310" y="284" fill="#cbd5e1" font-size="12">cluster</text>
<rect x="700" y="360" width="240" height="90" rx="16" fill="#15803d" opacity="0.35" stroke="#cbd5e1" />
<text x="720" y="398" fill="#ffffff" font-size="22">⬜</text>
<text x="760" y="398" fill="#ffffff" font-size="18">Resilience Controller</text>
<text x="760" y="424" fill="#cbd5e1" font-size="12">resilience</text>
<rect x="700" y="360" width="240" height="90" rx="16" fill="#1e293b" stroke="#94a3b8" />
<text x="720" y="398" fill="#ffffff" font-size="22"></text>
<text x="760" y="398" fill="#ffffff" font-size="18">Resilience Controller</text>
<text x="760" y="424" fill="#cbd5e1" font-size="12">resilience</text>
<rect x="1250" y="220" width="240" height="90" rx="16" fill="#b45309" opacity="0.35" stroke="#cbd5e1" />
<text x="1270" y="258" fill="#ffffff" font-size="22">⚙️</text>
<text x="1310" y="258" fill="#ffffff" font-size="18">Failover Orchestrator</text>
<text x="1310" y="284" fill="#cbd5e1" font-size="12">orchestration</text>
<rect x="1250" y="220" width="240" height="90" rx="16" fill="#1e293b" stroke="#94a3b8" />
<text x="1270" y="258" fill="#ffffff" font-size="22"></text>
<text x="1310" y="258" fill="#ffffff" font-size="18">Failover Orchestrator</text>
<text x="1310" y="284" fill="#cbd5e1" font-size="12">orchestration</text>
<rect x="1550" y="360" width="240" height="90" rx="16" fill="#365314" opacity="0.35" stroke="#cbd5e1" />
<text x="1570" y="398" fill="#ffffff" font-size="22">✅</text>
<text x="1610" y="398" fill="#ffffff" font-size="18">Survivability Validation</text>
<text x="1610" y="424" fill="#cbd5e1" font-size="12">validation</text>
<rect x="1550" y="360" width="240" height="90" rx="16" fill="#1e293b" stroke="#94a3b8" />
<text x="1570" y="398" fill="#ffffff" font-size="22"></text>
<text x="1610" y="398" fill="#ffffff" font-size="18">Survivability Validation</text>
<text x="1610" y="424" fill="#cbd5e1" font-size="12">validation</text>
</svg>