<svg xmlns="http://www.w3.org/2000/svg" width="1900" height="1000">
<rect width="100%" height="100%" fill="#0f172a" />
<rect x="40" y="20" width="1820" height="80" fill="#7c3aed" opacity="0.15" rx="18" />
<text x="70" y="68" fill="#ffffff" font-size="24" font-weight="bold">Enterprise Impact</text>
<rect x="40" y="130" width="1820" height="80" fill="#1d4ed8" opacity="0.15" rx="18" />
<text x="70" y="178" fill="#ffffff" font-size="24" font-weight="bold">Coordination</text>
<rect x="40" y="240" width="1820" height="80" fill="#0369a1" opacity="0.15" rx="18" />
<text x="70" y="288" fill="#ffffff" font-size="24" font-weight="bold">Continuity Control</text>
<rect x="40" y="350" width="1820" height="80" fill="#166534" opacity="0.15" rx="18" />
<text x="70" y="398" fill="#ffffff" font-size="24" font-weight="bold">Validation</text>
<rect x="40" y="460" width="1820" height="80" fill="#334155" opacity="0.15" rx="18" />
<text x="70" y="508" fill="#ffffff" font-size="24" font-weight="bold">Governance</text>
<rect x="80" y="100" width="300" height="760" rx="22" fill="#1e293b" opacity="0.25" stroke="#1e293b" stroke-width="2" />
<text x="100" y="134" fill="#ffffff" font-size="22" font-weight="bold">Enterprise Services</text>
<rect x="420" y="100" width="300" height="760" rx="22" fill="#166534" opacity="0.25" stroke="#166534" stroke-width="2" />
<text x="440" y="134" fill="#ffffff" font-size="22" font-weight="bold">Continuity Coordination</text>
<rect x="760" y="100" width="300" height="760" rx="22" fill="#334155" opacity="0.25" stroke="#334155" stroke-width="2" />
<text x="780" y="134" fill="#ffffff" font-size="22" font-weight="bold">Governance Layer</text>
<rect x="1100" y="100" width="300" height="760" rx="22" fill="#365314" opacity="0.25" stroke="#365314" stroke-width="2" />
<text x="1120" y="134" fill="#ffffff" font-size="22" font-weight="bold">Validation &amp; Evidence</text>
<line x1="340" y1="225" x2="440" y2="225" stroke="#a78bfa" stroke-width="3" />
<text x="390.0" y="213.0" fill="#cbd5e1" font-size="12" text-anchor="middle">enterprise impact detected</text>
<line x1="680" y1="225" x2="440" y2="365" stroke="#f59e0b" stroke-width="3" />
<text x="560.0" y="283.0" fill="#cbd5e1" font-size="12" text-anchor="middle">continuity workflow initiated</text>
<line x1="680" y1="365" x2="1120" y2="225" stroke="#22c55e" stroke-width="3" />
<text x="900.0" y="283.0" fill="#cbd5e1" font-size="12" text-anchor="middle">survivability verification</text>
<line x1="1360" y1="225" x2="780" y2="225" stroke="#94a3b8" stroke-width="3" />
<text x="1070.0" y="213.0" fill="#cbd5e1" font-size="12" text-anchor="middle">governance evidence published</text>
<rect x="100" y="180" width="240" height="90" rx="16" fill="#1d4ed8" opacity="0.35" stroke="#cbd5e1" />
<text x="120" y="218" fill="#ffffff" font-size="22">🖥️</text>
<text x="160" y="218" fill="#ffffff" font-size="18">Customer Platform</text>
<text x="160" y="244" fill="#cbd5e1" font-size="12">service</text>
<rect x="440" y="180" width="240" height="90" rx="16" fill="#15803d" opacity="0.35" stroke="#cbd5e1" />
<text x="460" y="218" fill="#ffffff" font-size="22">⚙️</text>
<text x="500" y="218" fill="#ffffff" font-size="18">Continuity Controller</text>
<text x="500" y="244" fill="#cbd5e1" font-size="12">orchestration</text>
<rect x="440" y="320" width="240" height="90" rx="16" fill="#15803d" opacity="0.35" stroke="#cbd5e1" />
<text x="460" y="358" fill="#ffffff" font-size="22">⬜</text>
<text x="500" y="358" fill="#ffffff" font-size="18">Regional Failover Manager</text>
<text x="500" y="384" fill="#cbd5e1" font-size="12">resilience</text>
<rect x="780" y="180" width="240" height="90" rx="16" fill="#334155" opacity="0.35" stroke="#cbd5e1" />
<text x="800" y="218" fill="#ffffff" font-size="22">🛡️</text>
<text x="840" y="218" fill="#ffffff" font-size="18">Governance Dashboard</text>
<text x="840" y="244" fill="#cbd5e1" font-size="12">governance</text>
<rect x="1120" y="180" width="240" height="90" rx="16" fill="#365314" opacity="0.35" stroke="#cbd5e1" />
<text x="1140" y="218" fill="#ffffff" font-size="22">✅</text>
<text x="1180" y="218" fill="#ffffff" font-size="18">Operational Validation Evidence</text>
<text x="1180" y="244" fill="#cbd5e1" font-size="12">validation</text>
<rect x="1460" y="760" width="360" height="180" rx="20" fill="#111827" stroke="#38bdf8" stroke-width="2" />
<text x="1480" y="796" fill="#ffffff" font-size="20" font-weight="bold">Enterprise Continuity Status</text>
<text x="1484" y="830" fill="#cbd5e1" font-size="14">Service Availability: Maintained</text>
<text x="1484" y="856" fill="#cbd5e1" font-size="14">Regional Survivability: Active</text>
<text x="1484" y="882" fill="#cbd5e1" font-size="14">Governance Reporting: Updated</text>
<text x="1484" y="908" fill="#cbd5e1" font-size="14">Validation Status: Successful</text>
<line x1="680" y1="225" x2="700" y2="180" stroke="#38bdf8" stroke-width="2" />
<rect x="700" y="156" width="320" height="56" rx="14" fill="#111827" stroke="#38bdf8" />
<text x="716" y="188" fill="#ffffff" font-size="13">Enterprise continuity coordination activated</text>
<line x1="1020" y1="225" x2="1040" y2="252" stroke="#94a3b8" stroke-width="2" />
<rect x="1040" y="228" width="320" height="56" rx="14" fill="#111827" stroke="#94a3b8" />
<text x="1056" y="260" fill="#ffffff" font-size="13">Governance evidence generated after survivability validation</text>
<rect x="40" y="720" width="300" height="240" rx="20" fill="#111827" stroke="#64748b" />
<text x="60" y="756" fill="#ffffff" font-size="20" font-weight="bold">Legend</text>
<text x="64" y="792" fill="#ffffff" font-size="18">🌐</text>
<text x="104" y="792" fill="#cbd5e1" font-size="14">Connectivity</text>
<text x="64" y="820" fill="#ffffff" font-size="18">📡</text>
<text x="104" y="820" fill="#cbd5e1" font-size="14">Observability</text>
<text x="64" y="848" fill="#ffffff" font-size="18">🧠</text>
<text x="104" y="848" fill="#cbd5e1" font-size="14">Analysis</text>
<text x="64" y="876" fill="#ffffff" font-size="18">⚙️</text>
<text x="104" y="876" fill="#cbd5e1" font-size="14">Recovery</text>
<text x="64" y="904" fill="#ffffff" font-size="18">🛡️</text>
<text x="104" y="904" fill="#cbd5e1" font-size="14">Governance</text>
<text x="64" y="932" fill="#ffffff" font-size="18">✅</text>
<text x="104" y="932" fill="#cbd5e1" font-size="14">Validation</text>
</svg>