<svg xmlns="http://www.w3.org/2000/svg" width="2320" height="800">
<rect width="100%" height="100%" fill="#0f172a" />
<defs><marker id="arrow" markerWidth="10" markerHeight="10" refX="9" refY="3" orient="auto" markerUnits="strokeWidth"><path d="M0,0 L0,6 L9,3 z" fill="#94a3b8" /></marker></defs>
<text x="40" y="55" fill="#ffffff" font-size="32" font-weight="bold">vpn-tunnel-recovery-automation</text>
<text x="40" y="92" fill="#cbd5e1" font-size="16">level-3-recovery</text>
<rect x="90" y="455" width="940" height="160" rx="18" fill="#1e293b" opacity="0.45" stroke="#475569" stroke-width="1.2" />
<text x="106" y="481" fill="#94a3b8" font-size="13" font-weight="bold">CONNECTIVITY</text>
<rect x="1050" y="455" width="620" height="160" rx="18" fill="#1e293b" opacity="0.45" stroke="#475569" stroke-width="1.2" />
<text x="1066" y="481" fill="#94a3b8" font-size="13" font-weight="bold">OBSERVABILITY</text>
<rect x="1690" y="455" width="300" height="160" rx="18" fill="#1e293b" opacity="0.45" stroke="#475569" stroke-width="1.2" />
<text x="1706" y="481" fill="#94a3b8" font-size="13" font-weight="bold">RECOVERY</text>
<line x1="360" y1="540" x2="440" y2="540" stroke="#94a3b8" stroke-width="2" stroke-dasharray="" marker-end="url(#arrow)" />
<text x="400.0" y="526.0" fill="#cbd5e1" font-size="12" text-anchor="middle">connects through</text>
<line x1="680" y1="540" x2="760" y2="540" stroke="#94a3b8" stroke-width="2" stroke-dasharray="" marker-end="url(#arrow)" />
<text x="720.0" y="526.0" fill="#cbd5e1" font-size="12" text-anchor="middle">establishes tunnel</text>
<line x1="1000" y1="540" x2="1080" y2="540" stroke="#94a3b8" stroke-width="2" stroke-dasharray="" marker-end="url(#arrow)" />
<text x="1040.0" y="526.0" fill="#cbd5e1" font-size="12" text-anchor="middle">exports tunnel metrics</text>
<line x1="1320" y1="540" x2="1400" y2="540" stroke="#94a3b8" stroke-width="2" stroke-dasharray="" marker-end="url(#arrow)" />
<text x="1360.0" y="526.0" fill="#cbd5e1" font-size="12" text-anchor="middle">publishes visibility</text>
<line x1="1640" y1="540" x2="1720" y2="540" stroke="#94a3b8" stroke-width="2" stroke-dasharray="" marker-end="url(#arrow)" />
<text x="1680.0" y="526.0" fill="#cbd5e1" font-size="12" text-anchor="middle">triggers recovery workflow</text>
<rect x="120" y="500" width="240" height="80" rx="14" fill="#334155" stroke="#e2e8f0" stroke-width="1.5" />
<text x="138" y="534" fill="#ffffff" font-size="15" font-weight="bold">Branch Site</text>
<text x="138" y="558" fill="#e2e8f0" font-size="11">site</text>
<rect x="440" y="500" width="240" height="80" rx="14" fill="#334155" stroke="#e2e8f0" stroke-width="1.5" />
<text x="458" y="534" fill="#ffffff" font-size="15" font-weight="bold">VPN Gateway</text>
<text x="458" y="558" fill="#e2e8f0" font-size="11">network</text>
<rect x="760" y="500" width="240" height="80" rx="14" fill="#334155" stroke="#e2e8f0" stroke-width="1.5" />
<text x="778" y="534" fill="#ffffff" font-size="15" font-weight="bold">VPN Tunnel</text>
<text x="778" y="558" fill="#e2e8f0" font-size="11">connectivity</text>
<rect x="1080" y="500" width="240" height="80" rx="14" fill="#334155" stroke="#e2e8f0" stroke-width="1.5" stroke-dasharray="8 4" />
<text x="1098" y="534" fill="#ffffff" font-size="15" font-weight="bold">Telemetry Collector</text>
<text x="1098" y="558" fill="#e2e8f0" font-size="11">telemetry</text>
<rect x="1400" y="500" width="240" height="80" rx="14" fill="#334155" stroke="#e2e8f0" stroke-width="1.5" />
<text x="1418" y="534" fill="#ffffff" font-size="15" font-weight="bold">Operations Dashboard</text>
<text x="1418" y="558" fill="#e2e8f0" font-size="11">dashboard</text>
<rect x="1720" y="500" width="240" height="80" rx="14" fill="#334155" stroke="#e2e8f0" stroke-width="1.5" />
<text x="1738" y="534" fill="#ffffff" font-size="15" font-weight="bold">Recovery Orchestrator</text>
<text x="1738" y="558" fill="#e2e8f0" font-size="11">automation</text>
</svg>