<svg xmlns="http://www.w3.org/2000/svg" width="1900" height="820">
<rect width="100%" height="100%" fill="#0f172a" />
<defs><marker id="arrow" markerWidth="10" markerHeight="10" refX="9" refY="3" orient="auto" markerUnits="strokeWidth"><path d="M0,0 L0,6 L9,3 z" fill="#94a3b8" /></marker></defs>
<text x="40" y="55" fill="#ffffff" font-size="32" font-weight="bold">vpn-tunnel-recovery-automation</text>
<text x="40" y="92" fill="#cbd5e1" font-size="16">level-3-recovery</text>
<text x="40" y="185" fill="#94a3b8" font-size="18" font-weight="bold">Convergence / Governance</text>
<text x="40" y="365" fill="#94a3b8" font-size="18" font-weight="bold">Lifecycle Chain</text>
<text x="40" y="545" fill="#94a3b8" font-size="18" font-weight="bold">Aggregation / Rollup</text>
<line x1="40" y1="200" x2="1800" y2="200" stroke="#334155" stroke-width="1.5" />
<line x1="40" y1="380" x2="1800" y2="380" stroke="#334155" stroke-width="1.5" />
<line x1="40" y1="560" x2="1800" y2="560" stroke="#334155" stroke-width="1.5" />
<line x1="550" y1="420" x2="950" y2="420" stroke="#94a3b8" stroke-width="2" stroke-dasharray="" marker-end="url(#arrow)" />
<text x="750.0" y="406.0" fill="#cbd5e1" font-size="12" text-anchor="middle">previous lifecycle</text>
<line x1="950" y1="420" x2="1350" y2="420" stroke="#94a3b8" stroke-width="2" stroke-dasharray="" marker-end="url(#arrow)" />
<text x="1150.0" y="406.0" fill="#cbd5e1" font-size="12" text-anchor="middle">next lifecycle</text>
<rect x="830" y="380" width="240" height="80" rx="14" fill="#2563eb" stroke="#e2e8f0" stroke-width="1.5" />
<text x="848" y="414" fill="#ffffff" font-size="15" font-weight="bold">vpn-tunnel-recovery-automation</text>
<text x="848" y="438" fill="#e2e8f0" font-size="11">scenario-node</text>
<rect x="430" y="380" width="240" height="80" rx="14" fill="#64748b" stroke="#e2e8f0" stroke-width="1.5" />
<text x="448" y="414" fill="#ffffff" font-size="15" font-weight="bold">previous lifecycle</text>
<text x="448" y="438" fill="#e2e8f0" font-size="11">relationship-node</text>
<rect x="1230" y="380" width="240" height="80" rx="14" fill="#64748b" stroke="#e2e8f0" stroke-width="1.5" />
<text x="1248" y="414" fill="#ffffff" font-size="15" font-weight="bold">next lifecycle</text>
<text x="1248" y="438" fill="#e2e8f0" font-size="11">relationship-node</text>
</svg>