<svg xmlns="http://www.w3.org/2000/svg" width="2600" height="1900" viewBox="0 0 2600 1900" font-family="Arial, Helvetica, sans-serif">
<style>text { font-family: Arial, Helvetica, sans-serif; letter-spacing: normal; word-spacing: normal; text-rendering: optimizeLegibility; font-kerning: normal; }</style>
<style>text { font-family: Arial, Helvetica, sans-serif; letter-spacing: normal; word-spacing: normal; text-rendering: optimizeLegibility; font-kerning: normal; }</style>
<rect width="2600" height="1900" fill="#020617" />
<rect x="60" y="40" width="2480" height="130" rx="30" fill="#111827" stroke="#334155" stroke-width="2" />
<text x="98" y="92" fill="#ffffff" font-size="34" font-weight="bold">Enterprise Data Protection Continu</text>
<text x="100" y="128" fill="#cbd5e1" font-size="17">Enterprise Continuity Board for Enterprise Data Protection Continuity</text>
<rect x="1900" y="72" width="270" height="38" rx="19" fill="#020617" stroke="#334155" stroke-width="1" />
<text x="2035" y="97" fill="#94a3b8" font-size="13" text-anchor="middle" font-weight="bold">level-5-continuity</text>
<rect x="2200" y="72" width="280" height="38" rx="19" fill="#020617" stroke="#334155" stroke-width="1" />
<text x="2340" y="97" fill="#94a3b8" font-size="13" text-anchor="middle" font-weight="bold">Infrastructure Operations</text>
<rect x="1990" y="200" width="550" height="760" rx="28" fill="#111827" stroke="#334155" stroke-width="2" />
<text x="2020" y="244" fill="#ffffff" font-size="24" font-weight="bold">Continuity Governance Workflow</text>
<text x="2020" y="274" fill="#cbd5e1" font-size="13">Lifecycle execution sequence</text>
<circle cx="2044" cy="320" r="18" fill="#f97316" stroke="#f97316" stroke-width="3" opacity="0.95" />
<text x="2044" y="326" fill="#020617" font-size="13" text-anchor="middle" font-weight="bold">1</text>
<text x="2078" y="316" fill="#ffffff" font-size="17" font-weight="bold">Assess</text>
<text x="2078" y="340" fill="#94a3b8" font-size="12">Define enterprise continuity scope and affecte</text>
<rect x="2412" y="302" width="96" height="26" rx="13" fill="#020617" stroke="#f97316" stroke-width="1" />
<text x="2460" y="320" fill="#f97316" font-size="10" text-anchor="middle" font-weight="bold">Assessed</text>
<line x1="2044" y1="342" x2="2044" y2="412" stroke="#475569" stroke-width="2" stroke-dasharray="6 6" opacity="0.7" />
<circle cx="2044" cy="436" r="18" fill="#a78bfa" stroke="#a78bfa" stroke-width="3" opacity="0.95" />
<text x="2044" y="442" fill="#020617" font-size="13" text-anchor="middle" font-weight="bold">2</text>
<text x="2078" y="432" fill="#ffffff" font-size="17" font-weight="bold">Govern</text>
<text x="2078" y="456" fill="#94a3b8" font-size="12">Evaluate risk, policy, and escalation authorit</text>
<rect x="2412" y="418" width="96" height="26" rx="13" fill="#020617" stroke="#a78bfa" stroke-width="1" />
<text x="2460" y="436" fill="#a78bfa" font-size="10" text-anchor="middle" font-weight="bold">Evaluating</text>
<line x1="2044" y1="458" x2="2044" y2="528" stroke="#475569" stroke-width="2" stroke-dasharray="6 6" opacity="0.7" />
<circle cx="2044" cy="552" r="18" fill="#84cc16" stroke="#84cc16" stroke-width="3" opacity="0.95" />
<text x="2044" y="558" fill="#020617" font-size="13" text-anchor="middle" font-weight="bold">3</text>
<text x="2078" y="548" fill="#ffffff" font-size="17" font-weight="bold">Decide</text>
<text x="2078" y="572" fill="#94a3b8" font-size="12">Authorize continuity recovery decision.</text>
<rect x="2412" y="534" width="96" height="26" rx="13" fill="#020617" stroke="#84cc16" stroke-width="1" />
<text x="2460" y="552" fill="#84cc16" font-size="10" text-anchor="middle" font-weight="bold">Ready</text>
<line x1="2044" y1="574" x2="2044" y2="644" stroke="#475569" stroke-width="2" stroke-dasharray="6 6" opacity="0.7" />
<circle cx="2044" cy="668" r="18" fill="#22c55e" stroke="#22c55e" stroke-width="3" opacity="0.95" />
<text x="2044" y="674" fill="#020617" font-size="13" text-anchor="middle" font-weight="bold">4</text>
<text x="2078" y="664" fill="#ffffff" font-size="17" font-weight="bold">Report</text>
<text x="2078" y="688" fill="#94a3b8" font-size="12">Prepare evidence and executive recovery report</text>
<rect x="2412" y="650" width="96" height="26" rx="13" fill="#020617" stroke="#22c55e" stroke-width="1" />
<text x="2460" y="668" fill="#22c55e" font-size="10" text-anchor="middle" font-weight="bold">Prepared</text>
<line x1="2044" y1="690" x2="2044" y2="760" stroke="#475569" stroke-width="2" stroke-dasharray="6 6" opacity="0.7" />
<circle cx="2044" cy="784" r="18" fill="#facc15" stroke="#facc15" stroke-width="3" opacity="0.95" />
<text x="2044" y="790" fill="#020617" font-size="13" text-anchor="middle" font-weight="bold">5</text>
<text x="2078" y="780" fill="#ffffff" font-size="17" font-weight="bold">Review</text>
<text x="2078" y="804" fill="#94a3b8" font-size="12">Complete governance review and audit trail.</text>
<rect x="2412" y="766" width="96" height="26" rx="13" fill="#020617" stroke="#facc15" stroke-width="1" />
<text x="2460" y="784" fill="#facc15" font-size="10" text-anchor="middle" font-weight="bold">Verified</text>
<rect x="1990" y="990" width="550" height="300" rx="26" fill="#111827" stroke="#334155" stroke-width="2" />
<text x="2018" y="1032" fill="#ffffff" font-size="22" font-weight="bold">Operational Summary</text>
<text x="2018" y="1060" fill="#cbd5e1" font-size="13">Scenario coverage overview</text>
<rect x="60" y="1345" width="1880" height="320" rx="30" fill="#111827" stroke="#334155" stroke-width="2" />
<rect x="84" y="1367" width="1832" height="70" rx="22" fill="#020617" stroke="#38bdf8" stroke-width="2" opacity="0.96" />
<text x="108" y="1397" fill="#ffffff" font-size="24" font-weight="bold">Enterprise Data Protection Continuity Stat</text>
<text x="108" y="1423" fill="#cbd5e1" font-size="13">Operational status and validation metrics</text>
<rect x="94" y="1463" width="430" height="150" rx="26" fill="#082f49" stroke="#38bdf8" stroke-width="4" opacity="0.98" />
<text x="122" y="1505" fill="#94a3b8" font-size="13" font-weight="bold">Operational State</text>
<text x="122" y="1555" fill="#ffffff" font-size="30" font-weight="bold">NORMAL</text>
<rect x="122" y="1583" width="320" height="32" rx="16" fill="#020617" stroke="#38bdf8" stroke-width="1" />
<text x="138" y="1604" fill="#cbd5e1" font-size="12" font-weight="bold">Operational state available</text>
<rect x="560" y="1463" width="205" height="68" rx="20" fill="#0f172a" stroke="#10b981" stroke-width="2" opacity="0.98" />
<rect x="574" y="1475" width="10" height="44" rx="5" fill="#10b981" opacity="0.85" />
<text x="600" y="1493" fill="#94a3b8" font-size="11" font-weight="bold">State</text>
<text x="600" y="1521" fill="#ffffff" font-size="16" font-weight="bold">Ready</text>
<rect x="787" y="1463" width="205" height="68" rx="20" fill="#0f172a" stroke="#10b981" stroke-width="2" opacity="0.98" />
<rect x="801" y="1475" width="10" height="44" rx="5" fill="#10b981" opacity="0.85" />
<text x="827" y="1493" fill="#94a3b8" font-size="11" font-weight="bold">Signal</text>
<text x="827" y="1521" fill="#ffffff" font-size="16" font-weight="bold">Observed</text>
<rect x="1014" y="1463" width="205" height="68" rx="20" fill="#0f172a" stroke="#facc15" stroke-width="2" opacity="0.98" />
<rect x="1028" y="1475" width="10" height="44" rx="5" fill="#facc15" opacity="0.85" />
<text x="1054" y="1493" fill="#94a3b8" font-size="11" font-weight="bold">Control</text>
<text x="1054" y="1521" fill="#ffffff" font-size="16" font-weight="bold">Prepared</text>
<rect x="560" y="1551" width="205" height="68" rx="20" fill="#0f172a" stroke="#10b981" stroke-width="2" opacity="0.98" />
<rect x="574" y="1563" width="10" height="44" rx="5" fill="#10b981" opacity="0.85" />
<text x="600" y="1581" fill="#94a3b8" font-size="11" font-weight="bold">Action</text>
<text x="600" y="1609" fill="#ffffff" font-size="16" font-weight="bold">Available</text>
<rect x="787" y="1551" width="205" height="68" rx="20" fill="#0f172a" stroke="#22c55e" stroke-width="2" opacity="0.98" />
<rect x="801" y="1563" width="10" height="44" rx="5" fill="#22c55e" opacity="0.85" />
<text x="827" y="1581" fill="#94a3b8" font-size="11" font-weight="bold">Validation</text>
<text x="827" y="1609" fill="#ffffff" font-size="16" font-weight="bold">Verified</text>
<rect x="1014" y="1551" width="205" height="68" rx="20" fill="#0f172a" stroke="#facc15" stroke-width="2" opacity="0.98" />
<rect x="1028" y="1563" width="10" height="44" rx="5" fill="#facc15" opacity="0.85" />
<text x="1054" y="1581" fill="#94a3b8" font-size="11" font-weight="bold">Evidence</text>
<text x="1054" y="1609" fill="#ffffff" font-size="16" font-weight="bold">Prepared</text>
<rect x="1440" y="1463" width="455" height="150" rx="26" fill="#020617" stroke="#38bdf8" stroke-width="3" opacity="0.98" />
<text x="1468" y="1505" fill="#ffffff" font-size="19" font-weight="bold">Operational Result</text>
<rect x="1468" y="1527" width="220" height="30" rx="15" fill="#0f172a" stroke="#38bdf8" stroke-width="1" />
<text x="1578" y="1547" fill="#cbd5e1" font-size="11" text-anchor="middle" font-weight="bold">DASHBOARD RESULT</text>
<text x="1468" y="1587" fill="#94a3b8" font-size="13">Operational state is available.</text>
<rect x="1990" y="1320" width="550" height="330" rx="26" fill="#111827" stroke="#334155" stroke-width="2" />
<text x="2018" y="1362" fill="#ffffff" font-size="22" font-weight="bold">Legend</text>
<text x="2018" y="1390" fill="#94a3b8" font-size="13">Operational role and visual mapping</text>
<circle cx="2032" cy="1427" r="8" fill="#2563eb" />
<text x="2054" y="1432" fill="#94a3b8" font-size="13" font-weight="bold">Continuity Scope</text>
<circle cx="2032" cy="1461" r="8" fill="#7c3aed" />
<text x="2054" y="1466" fill="#94a3b8" font-size="13" font-weight="bold">Governance Control</text>
<circle cx="2032" cy="1495" r="8" fill="#0891b2" />
<text x="2054" y="1500" fill="#94a3b8" font-size="13" font-weight="bold">Executive Coordination</text>
<circle cx="2032" cy="1529" r="8" fill="#16a34a" />
<text x="2054" y="1534" fill="#94a3b8" font-size="13" font-weight="bold">Evidence Reporting</text>
<circle cx="2032" cy="1563" r="8" fill="#7c3aed" />
<text x="2054" y="1568" fill="#94a3b8" font-size="13" font-weight="bold">Core Governance Capability</text>
<circle cx="2032" cy="1597" r="8" fill="#0891b2" />
<text x="2054" y="1602" fill="#94a3b8" font-size="13" font-weight="bold">Executive Decision Point</text>
</svg>