<svg xmlns="http://www.w3.org/2000/svg" width="2600" height="1900" viewBox="0 0 2600 1900" font-family="Arial, Helvetica, sans-serif">
<style>text { font-family: Arial, Helvetica, sans-serif; letter-spacing: normal; word-spacing: normal; text-rendering: optimizeLegibility; font-kerning: normal; }</style>
<style>text { font-family: Arial, Helvetica, sans-serif; letter-spacing: normal; word-spacing: normal; text-rendering: optimizeLegibility; font-kerning: normal; }</style>
<rect width="2600" height="1900" fill="#020617" />
<rect x="60" y="40" width="2480" height="130" rx="30" fill="#111827" stroke="#334155" stroke-width="2" />
<text x="98" y="92" fill="#ffffff" font-size="34" font-weight="bold">Network Packet Loss Correlation</text>
<text x="100" y="128" fill="#cbd5e1" font-size="17">Correlation &amp; Impact Analysis Board for Network Packet Loss Correlation</text>
<rect x="1900" y="72" width="270" height="38" rx="19" fill="#020617" stroke="#334155" stroke-width="1" />
<text x="2035" y="97" fill="#94a3b8" font-size="13" text-anchor="middle" font-weight="bold">level-2-correlation</text>
<rect x="2200" y="72" width="280" height="38" rx="19" fill="#020617" stroke="#334155" stroke-width="1" />
<text x="2340" y="97" fill="#94a3b8" font-size="13" text-anchor="middle" font-weight="bold">Infrastructure Operations</text>
<rect x="80" y="220" width="1840" height="220" rx="28" fill="#1e293b" stroke="#2563eb" stroke-width="3" />
<rect x="80" y="220" width="14" height="220" rx="7" fill="#2563eb" />
<text x="114" y="262" fill="#ffffff" font-size="24" font-weight="bold">Signal &amp; Service Domains</text>
<text x="114" y="290" fill="#cbd5e1" font-size="15">Infrastructure, application, and service signals used for DNS failure correlation.</text>
<rect x="1650" y="246" width="220" height="38" rx="19" fill="#020617" stroke="#2563eb" stroke-width="2" />
<text x="1760" y="271" fill="#2563eb" font-size="13" text-anchor="middle" font-weight="bold">4 SIGNAL DOMAINS</text>
<rect x="114" y="312" width="425" height="112" rx="22" fill="#111827" stroke="#334155" stroke-width="2" />
<circle cx="152" cy="352" r="22" fill="#020617" stroke="#60a5fa" stroke-width="2" />
<circle cx="152" cy="352" r="7" fill="#60a5fa" />
<circle cx="152" cy="352" r="14" fill="none" stroke="#60a5fa" stroke-width="2" opacity="0.35" />
<text x="186" y="344" fill="#ffffff" font-size="16" font-weight="bold">Client Requests</text>
<text x="186" y="370" fill="#cbd5e1" font-size="10">DNS query traffic</text>
<text x="186" y="396" fill="#94a3b8" font-size="10">client-signal</text>
<rect x="421" y="388" width="96" height="22" rx="11" fill="#020617" stroke="#60a5fa" stroke-width="1" />
<text x="469" y="404" fill="#60a5fa" font-size="10" text-anchor="middle" font-weight="bold">Observed</text>
<rect x="563" y="312" width="425" height="112" rx="22" fill="#111827" stroke="#334155" stroke-width="2" />
<circle cx="601" cy="352" r="22" fill="#020617" stroke="#38bdf8" stroke-width="2" />
<circle cx="601" cy="352" r="7" fill="#38bdf8" />
<circle cx="601" cy="352" r="14" fill="none" stroke="#38bdf8" stroke-width="2" opacity="0.35" />
<text x="635" y="344" fill="#ffffff" font-size="16" font-weight="bold">DNS Resolver</text>
<text x="635" y="370" fill="#cbd5e1" font-size="10">Resolver response state</text>
<text x="635" y="396" fill="#94a3b8" font-size="10">dns</text>
<rect x="870" y="388" width="96" height="22" rx="11" fill="#020617" stroke="#38bdf8" stroke-width="1" />
<text x="918" y="404" fill="#38bdf8" font-size="10" text-anchor="middle" font-weight="bold">Monitored</text>
<rect x="1012" y="312" width="425" height="112" rx="22" fill="#111827" stroke="#334155" stroke-width="2" />
<circle cx="1050" cy="352" r="22" fill="#020617" stroke="#93c5fd" stroke-width="2" />
<rect x="1039" y="341" width="22" height="22" rx="5" fill="none" stroke="#93c5fd" stroke-width="2" />
<circle cx="1050" cy="352" r="4" fill="#93c5fd" />
<line x1="1033" y1="352" x2="1039" y2="352" stroke="#93c5fd" stroke-width="2" stroke-linecap="round" />
<line x1="1061" y1="352" x2="1067" y2="352" stroke="#93c5fd" stroke-width="2" stroke-linecap="round" />
<text x="1084" y="344" fill="#ffffff" font-size="16" font-weight="bold">Service Endpoint</text>
<text x="1084" y="370" fill="#cbd5e1" font-size="10">Application dependency</text>
<text x="1084" y="396" fill="#94a3b8" font-size="10">service</text>
<rect x="1319" y="388" width="96" height="22" rx="11" fill="#020617" stroke="#93c5fd" stroke-width="1" />
<text x="1367" y="404" fill="#93c5fd" font-size="10" text-anchor="middle" font-weight="bold">Reachable</text>
<rect x="1461" y="312" width="425" height="112" rx="22" fill="#111827" stroke="#334155" stroke-width="2" />
<circle cx="1499" cy="352" r="22" fill="#020617" stroke="#60a5fa" stroke-width="2" />
<circle cx="1499" cy="352" r="7" fill="#60a5fa" />
<circle cx="1499" cy="352" r="14" fill="none" stroke="#60a5fa" stroke-width="2" opacity="0.35" />
<text x="1533" y="344" fill="#ffffff" font-size="16" font-weight="bold">Network Path</text>
<text x="1533" y="370" fill="#cbd5e1" font-size="10">Resolver network path</text>
<text x="1533" y="396" fill="#94a3b8" font-size="10">network</text>
<rect x="1768" y="388" width="96" height="22" rx="11" fill="#020617" stroke="#60a5fa" stroke-width="1" />
<text x="1816" y="404" fill="#60a5fa" font-size="10" text-anchor="middle" font-weight="bold">Observed</text>
<rect x="80" y="480" width="1840" height="280" rx="28" fill="#1e293b" stroke="#7c3aed" stroke-width="3" />
<rect x="80" y="480" width="14" height="280" rx="7" fill="#7c3aed" />
<text x="114" y="522" fill="#ffffff" font-size="24" font-weight="bold">Monitoring &amp; Correlation Platform</text>
<text x="114" y="550" fill="#cbd5e1" font-size="15">Telemetry normalization and cross-signal correlation for DNS impact analysis.</text>
<rect x="1650" y="506" width="220" height="38" rx="19" fill="#020617" stroke="#7c3aed" stroke-width="2" />
<text x="1760" y="531" fill="#7c3aed" font-size="13" text-anchor="middle" font-weight="bold">CORRELATION ACTIVE</text>
<rect x="114" y="562" width="1772" height="40" rx="18" fill="#020617" stroke="#7c3aed" stroke-width="2" opacity="0.98" />
<rect x="128" y="569" width="190" height="26" rx="13" fill="#2e1065" stroke="#a78bfa" stroke-width="1" />
<text x="223.0" y="587" fill="#ddd6fe" font-size="10" text-anchor="middle" font-weight="bold">CORE PROCESSING</text>
<text x="535.0" y="587" fill="#cbd5e1" font-size="10" text-anchor="middle" font-weight="bold">Input Signals</text>
<text x="724.0" y="588" fill="#a78bfa" font-size="16" text-anchor="middle" font-weight="bold">→</text>
<text x="913.0" y="587" fill="#cbd5e1" font-size="10" text-anchor="middle" font-weight="bold">Correlation</text>
<text x="1102.0" y="588" fill="#a78bfa" font-size="16" text-anchor="middle" font-weight="bold">→</text>
<text x="1291.0" y="587" fill="#cbd5e1" font-size="10" text-anchor="middle" font-weight="bold">Dependency Map</text>
<text x="1480.0" y="588" fill="#a78bfa" font-size="16" text-anchor="middle" font-weight="bold">→</text>
<text x="1669.0" y="587" fill="#cbd5e1" font-size="10" text-anchor="middle" font-weight="bold">Incident Conte</text>
<rect x="114" y="622" width="425" height="108" rx="22" fill="#111827" stroke="#334155" stroke-width="2" />
<circle cx="152" cy="662" r="22" fill="#020617" stroke="#06b6d4" stroke-width="2" />
<line x1="140" y1="671" x2="140" y2="661" stroke="#06b6d4" stroke-width="3" stroke-linecap="round" />
<line x1="148" y1="671" x2="148" y2="652" stroke="#06b6d4" stroke-width="3" stroke-linecap="round" />
<line x1="156" y1="671" x2="156" y2="658" stroke="#06b6d4" stroke-width="3" stroke-linecap="round" />
<line x1="164" y1="671" x2="164" y2="649" stroke="#06b6d4" stroke-width="3" stroke-linecap="round" />
<text x="186" y="654" fill="#ffffff" font-size="16" font-weight="bold">Telemetry Collector</text>
<text x="186" y="680" fill="#cbd5e1" font-size="10">DNS logs and metrics</text>
<text x="186" y="706" fill="#94a3b8" font-size="10">telemetry</text>
<rect x="421" y="694" width="96" height="22" rx="11" fill="#020617" stroke="#06b6d4" stroke-width="1" />
<text x="469" y="710" fill="#06b6d4" font-size="10" text-anchor="middle" font-weight="bold">Streaming</text>
<rect x="563" y="622" width="425" height="108" rx="22" fill="#172554" stroke="#a78bfa" stroke-width="3" />
<circle cx="601" cy="662" r="22" fill="#020617" stroke="#a78bfa" stroke-width="2" />
<circle cx="601" cy="662" r="7" fill="#a78bfa" />
<circle cx="601" cy="662" r="14" fill="none" stroke="#a78bfa" stroke-width="2" opacity="0.35" />
<text x="635" y="654" fill="#ffffff" font-size="16" font-weight="bold">Correlation Engine</text>
<text x="635" y="680" fill="#cbd5e1" font-size="10">Cross-signal symptom matchin</text>
<text x="635" y="706" fill="#94a3b8" font-size="10">correlation</text>
<rect x="870" y="694" width="96" height="22" rx="11" fill="#020617" stroke="#a78bfa" stroke-width="1" />
<text x="918" y="710" fill="#a78bfa" font-size="10" text-anchor="middle" font-weight="bold">Analyzing</text>
<rect x="856" y="638" width="92" height="22" rx="11" fill="#020617" stroke="#a78bfa" stroke-width="1" />
<text x="902" y="653" fill="#a78bfa" font-size="10" text-anchor="middle" font-weight="bold">CORE</text>
<rect x="1012" y="622" width="425" height="108" rx="22" fill="#111827" stroke="#334155" stroke-width="2" />
<circle cx="1050" cy="662" r="22" fill="#020617" stroke="#818cf8" stroke-width="2" />
<circle cx="1050" cy="662" r="7" fill="#818cf8" />
<circle cx="1050" cy="662" r="14" fill="none" stroke="#818cf8" stroke-width="2" opacity="0.35" />
<text x="1084" y="654" fill="#ffffff" font-size="16" font-weight="bold">Dependency Mapper</text>
<text x="1084" y="680" fill="#cbd5e1" font-size="10">DNS dependency mapping</text>
<text x="1084" y="706" fill="#94a3b8" font-size="10">dependency</text>
<rect x="1319" y="694" width="96" height="22" rx="11" fill="#020617" stroke="#818cf8" stroke-width="1" />
<text x="1367" y="710" fill="#818cf8" font-size="10" text-anchor="middle" font-weight="bold">Mapped</text>
<rect x="1461" y="622" width="425" height="108" rx="22" fill="#111827" stroke="#334155" stroke-width="2" />
<circle cx="1499" cy="662" r="22" fill="#020617" stroke="#84cc16" stroke-width="2" />
<circle cx="1499" cy="662" r="7" fill="#84cc16" />
<circle cx="1499" cy="662" r="14" fill="none" stroke="#84cc16" stroke-width="2" opacity="0.35" />
<text x="1533" y="654" fill="#ffffff" font-size="16" font-weight="bold">Incident Signal</text>
<text x="1533" y="680" fill="#cbd5e1" font-size="10">Correlated incident candidat</text>
<text x="1533" y="706" fill="#94a3b8" font-size="10">incident</text>
<rect x="1768" y="694" width="96" height="22" rx="11" fill="#020617" stroke="#84cc16" stroke-width="1" />
<text x="1816" y="710" fill="#84cc16" font-size="10" text-anchor="middle" font-weight="bold">Ready</text>
<rect x="80" y="800" width="1840" height="220" rx="28" fill="#1e293b" stroke="#dc2626" stroke-width="3" />
<rect x="80" y="800" width="14" height="220" rx="7" fill="#dc2626" />
<text x="114" y="842" fill="#ffffff" font-size="24" font-weight="bold">Dependency &amp; Impact Analysis</text>
<text x="114" y="870" fill="#cbd5e1" font-size="15">Operational analysis components used to determine service and business impact.</text>
<rect x="1650" y="826" width="220" height="38" rx="19" fill="#020617" stroke="#dc2626" stroke-width="2" />
<text x="1760" y="851" fill="#dc2626" font-size="13" text-anchor="middle" font-weight="bold">IMPACT MAPPED</text>
<rect x="114" y="892" width="425" height="112" rx="22" fill="#111827" stroke="#334155" stroke-width="2" />
<circle cx="152" cy="932" r="22" fill="#020617" stroke="#10b981" stroke-width="2" />
<circle cx="152" cy="932" r="7" fill="#10b981" />
<circle cx="152" cy="932" r="14" fill="none" stroke="#10b981" stroke-width="2" opacity="0.35" />
<text x="186" y="924" fill="#ffffff" font-size="16" font-weight="bold">Resolver Health</text>
<text x="186" y="950" fill="#cbd5e1" font-size="10">Availability and latency ana</text>
<text x="186" y="976" fill="#94a3b8" font-size="10">analysis</text>
<rect x="421" y="968" width="96" height="22" rx="11" fill="#020617" stroke="#10b981" stroke-width="1" />
<text x="469" y="984" fill="#10b981" font-size="10" text-anchor="middle" font-weight="bold">Normal</text>
<rect x="563" y="892" width="425" height="112" rx="22" fill="#111827" stroke="#334155" stroke-width="2" />
<circle cx="601" cy="932" r="22" fill="#020617" stroke="#fb923c" stroke-width="2" />
<circle cx="601" cy="932" r="7" fill="#fb923c" />
<circle cx="601" cy="932" r="14" fill="none" stroke="#fb923c" stroke-width="2" opacity="0.35" />
<text x="635" y="924" fill="#ffffff" font-size="16" font-weight="bold">Query Failure Pattern</text>
<text x="635" y="950" fill="#cbd5e1" font-size="10">Failure trend detection</text>
<text x="635" y="976" fill="#94a3b8" font-size="10">analysis</text>
<rect x="870" y="968" width="96" height="22" rx="11" fill="#020617" stroke="#fb923c" stroke-width="1" />
<text x="918" y="984" fill="#fb923c" font-size="10" text-anchor="middle" font-weight="bold">Detected</text>
<rect x="1012" y="892" width="425" height="112" rx="22" fill="#111827" stroke="#334155" stroke-width="2" />
<circle cx="1050" cy="932" r="22" fill="#020617" stroke="#f97316" stroke-width="2" />
<circle cx="1050" cy="932" r="7" fill="#f97316" />
<circle cx="1050" cy="932" r="14" fill="none" stroke="#f97316" stroke-width="2" opacity="0.35" />
<text x="1084" y="924" fill="#ffffff" font-size="16" font-weight="bold">Service Impact</text>
<text x="1084" y="950" fill="#cbd5e1" font-size="10">Service dependency risk</text>
<text x="1084" y="976" fill="#94a3b8" font-size="10">impact</text>
<rect x="1319" y="968" width="96" height="22" rx="11" fill="#020617" stroke="#f97316" stroke-width="1" />
<text x="1367" y="984" fill="#f97316" font-size="10" text-anchor="middle" font-weight="bold">Assessed</text>
<rect x="1461" y="892" width="425" height="112" rx="22" fill="#172554" stroke="#facc15" stroke-width="3" />
<circle cx="1499" cy="932" r="22" fill="#020617" stroke="#facc15" stroke-width="2" />
<circle cx="1499" cy="932" r="7" fill="#facc15" />
<circle cx="1499" cy="932" r="14" fill="none" stroke="#facc15" stroke-width="2" opacity="0.35" />
<text x="1533" y="924" fill="#ffffff" font-size="16" font-weight="bold">Risk Score</text>
<text x="1533" y="950" fill="#cbd5e1" font-size="10">Severity and priority estima</text>
<text x="1533" y="976" fill="#94a3b8" font-size="10">risk</text>
<rect x="1768" y="968" width="96" height="22" rx="11" fill="#020617" stroke="#facc15" stroke-width="1" />
<text x="1816" y="984" fill="#facc15" font-size="10" text-anchor="middle" font-weight="bold">Calculated</text>
<rect x="1754" y="908" width="92" height="22" rx="11" fill="#020617" stroke="#facc15" stroke-width="1" />
<text x="1800" y="923" fill="#facc15" font-size="10" text-anchor="middle" font-weight="bold">DECISI</text>
<rect x="80" y="1060" width="1840" height="220" rx="28" fill="#1e293b" stroke="#16a34a" stroke-width="3" />
<rect x="80" y="1060" width="14" height="220" rx="7" fill="#16a34a" />
<text x="114" y="1102" fill="#ffffff" font-size="24" font-weight="bold">Operational Insight &amp; Decision Support</text>
<text x="114" y="1130" fill="#cbd5e1" font-size="15">Reviewer-facing outputs used by operations teams during correlation review.</text>
<rect x="1650" y="1086" width="220" height="38" rx="19" fill="#020617" stroke="#16a34a" stroke-width="2" />
<text x="1760" y="1111" fill="#16a34a" font-size="13" text-anchor="middle" font-weight="bold">INSIGHT READY</text>
<rect x="114" y="1152" width="425" height="112" rx="22" fill="#111827" stroke="#334155" stroke-width="2" />
<circle cx="152" cy="1192" r="22" fill="#020617" stroke="#22c55e" stroke-width="2" />
<rect x="139" y="1182" width="26" height="20" rx="3" fill="none" stroke="#22c55e" stroke-width="2" />
<polyline points="144,1196 150,1190 155,1194 161,1186" fill="none" stroke="#22c55e" stroke-width="2" stroke-linecap="round" stroke-linejoin="round" />
<text x="186" y="1184" fill="#ffffff" font-size="16" font-weight="bold">Impact Dashboard</text>
<text x="186" y="1210" fill="#cbd5e1" font-size="10">DNS impact visibility</text>
<text x="186" y="1236" fill="#94a3b8" font-size="10">dashboard</text>
<rect x="421" y="1228" width="96" height="22" rx="11" fill="#020617" stroke="#22c55e" stroke-width="1" />
<text x="469" y="1244" fill="#22c55e" font-size="10" text-anchor="middle" font-weight="bold">Visible</text>
<rect x="563" y="1152" width="425" height="112" rx="22" fill="#111827" stroke="#334155" stroke-width="2" />
<circle cx="601" cy="1192" r="22" fill="#020617" stroke="#4ade80" stroke-width="2" />
<circle cx="601" cy="1192" r="7" fill="#4ade80" />
<circle cx="601" cy="1192" r="14" fill="none" stroke="#4ade80" stroke-width="2" opacity="0.35" />
<text x="635" y="1184" fill="#ffffff" font-size="16" font-weight="bold">Incident Context</text>
<text x="635" y="1210" fill="#cbd5e1" font-size="10">Symptoms and suspected cause</text>
<text x="635" y="1236" fill="#94a3b8" font-size="10">context</text>
<rect x="870" y="1228" width="96" height="22" rx="11" fill="#020617" stroke="#4ade80" stroke-width="1" />
<text x="918" y="1244" fill="#4ade80" font-size="10" text-anchor="middle" font-weight="bold">Available</text>
<rect x="1012" y="1152" width="425" height="112" rx="22" fill="#111827" stroke="#334155" stroke-width="2" />
<circle cx="1050" cy="1192" r="22" fill="#020617" stroke="#84cc16" stroke-width="2" />
<circle cx="1050" cy="1192" r="7" fill="#84cc16" />
<circle cx="1050" cy="1192" r="14" fill="none" stroke="#84cc16" stroke-width="2" opacity="0.35" />
<text x="1084" y="1184" fill="#ffffff" font-size="16" font-weight="bold">Operator Guidance</text>
<text x="1084" y="1210" fill="#cbd5e1" font-size="10">Investigation guidance</text>
<text x="1084" y="1236" fill="#94a3b8" font-size="10">guidance</text>
<rect x="1319" y="1228" width="96" height="22" rx="11" fill="#020617" stroke="#84cc16" stroke-width="1" />
<text x="1367" y="1244" fill="#84cc16" font-size="10" text-anchor="middle" font-weight="bold">Ready</text>
<rect x="1461" y="1152" width="425" height="112" rx="22" fill="#111827" stroke="#334155" stroke-width="2" />
<circle cx="1499" cy="1192" r="22" fill="#020617" stroke="#22c55e" stroke-width="2" />
<polygon points="1490,1179 1504,1179 1510,1185 1510,1205 1490,1205" fill="none" stroke="#22c55e" stroke-width="2" stroke-linejoin="round" />
<line x1="1495" y1="1192" x2="1504" y2="1192" stroke="#22c55e" stroke-width="2" stroke-linecap="round" />
<line x1="1495" y1="1198" x2="1504" y2="1198" stroke="#22c55e" stroke-width="2" stroke-linecap="round" />
<text x="1533" y="1184" fill="#ffffff" font-size="16" font-weight="bold">Validation Evidence</text>
<text x="1533" y="1210" fill="#cbd5e1" font-size="10">Incident review evidence</text>
<text x="1533" y="1236" fill="#94a3b8" font-size="10">evidence</text>
<rect x="1768" y="1228" width="96" height="22" rx="11" fill="#020617" stroke="#22c55e" stroke-width="1" />
<text x="1816" y="1244" fill="#22c55e" font-size="10" text-anchor="middle" font-weight="bold">Prepared</text>
<line x1="1000.0" y1="450" x2="1000.0" y2="452" stroke="#475569" stroke-width="2" stroke-linecap="round" stroke-dasharray="8 8" opacity="0.55" />
<polygon points="992.0,454 1008.0,454 1000.0,470" fill="#64748b" opacity="0.75" />
<line x1="1000.0" y1="770" x2="1000.0" y2="772" stroke="#475569" stroke-width="2" stroke-linecap="round" stroke-dasharray="8 8" opacity="0.55" />
<polygon points="992.0,774 1008.0,774 1000.0,790" fill="#64748b" opacity="0.75" />
<line x1="1000.0" y1="1030" x2="1000.0" y2="1032" stroke="#475569" stroke-width="2" stroke-linecap="round" stroke-dasharray="8 8" opacity="0.55" />
<polygon points="992.0,1034 1008.0,1034 1000.0,1050" fill="#64748b" opacity="0.75" />
<rect x="1990" y="200" width="550" height="760" rx="28" fill="#111827" stroke="#334155" stroke-width="2" />
<text x="2020" y="244" fill="#ffffff" font-size="24" font-weight="bold">Correlation Workflow</text>
<text x="2020" y="274" fill="#cbd5e1" font-size="13">Lifecycle execution sequence</text>
<circle cx="2044" cy="320" r="18" fill="#84cc16" stroke="#84cc16" stroke-width="3" opacity="0.95" />
<text x="2044" y="326" fill="#020617" font-size="13" text-anchor="middle" font-weight="bold">1</text>
<text x="2078" y="316" fill="#ffffff" font-size="17" font-weight="bold">Detect</text>
<text x="2078" y="340" fill="#94a3b8" font-size="12">Capture DNS query failures and resolver sympto</text>
<rect x="2412" y="302" width="96" height="26" rx="13" fill="#020617" stroke="#84cc16" stroke-width="1" />
<text x="2460" y="320" fill="#84cc16" font-size="10" text-anchor="middle" font-weight="bold">Ready</text>
<line x1="2044" y1="342" x2="2044" y2="412" stroke="#475569" stroke-width="2" stroke-dasharray="6 6" opacity="0.7" />
<circle cx="2044" cy="436" r="18" fill="#a78bfa" stroke="#a78bfa" stroke-width="3" opacity="0.95" />
<text x="2044" y="442" fill="#020617" font-size="13" text-anchor="middle" font-weight="bold">2</text>
<text x="2078" y="432" fill="#ffffff" font-size="17" font-weight="bold">Correlate</text>
<text x="2078" y="456" fill="#94a3b8" font-size="12">Join resolver, network, client, and service si</text>
<rect x="2412" y="418" width="96" height="26" rx="13" fill="#020617" stroke="#a78bfa" stroke-width="1" />
<text x="2460" y="436" fill="#a78bfa" font-size="10" text-anchor="middle" font-weight="bold">Analyzing</text>
<line x1="2044" y1="458" x2="2044" y2="528" stroke="#475569" stroke-width="2" stroke-dasharray="6 6" opacity="0.7" />
<circle cx="2044" cy="552" r="18" fill="#818cf8" stroke="#818cf8" stroke-width="3" opacity="0.95" />
<text x="2044" y="558" fill="#020617" font-size="13" text-anchor="middle" font-weight="bold">3</text>
<text x="2078" y="548" fill="#ffffff" font-size="17" font-weight="bold">Map Impact</text>
<text x="2078" y="572" fill="#94a3b8" font-size="12">Identify dependent services and affected paths</text>
<rect x="2412" y="534" width="96" height="26" rx="13" fill="#020617" stroke="#818cf8" stroke-width="1" />
<text x="2460" y="552" fill="#818cf8" font-size="10" text-anchor="middle" font-weight="bold">Mapped</text>
<line x1="2044" y1="574" x2="2044" y2="644" stroke="#475569" stroke-width="2" stroke-dasharray="6 6" opacity="0.7" />
<circle cx="2044" cy="668" r="18" fill="#facc15" stroke="#facc15" stroke-width="3" opacity="0.95" />
<text x="2044" y="674" fill="#020617" font-size="13" text-anchor="middle" font-weight="bold">4</text>
<text x="2078" y="664" fill="#ffffff" font-size="17" font-weight="bold">Prioritize</text>
<text x="2078" y="688" fill="#94a3b8" font-size="12">Assign operational severity and response prior</text>
<rect x="2412" y="650" width="96" height="26" rx="13" fill="#020617" stroke="#facc15" stroke-width="1" />
<text x="2460" y="668" fill="#facc15" font-size="10" text-anchor="middle" font-weight="bold">Calculated</text>
<line x1="2044" y1="690" x2="2044" y2="760" stroke="#475569" stroke-width="2" stroke-dasharray="6 6" opacity="0.7" />
<circle cx="2044" cy="784" r="18" fill="#84cc16" stroke="#84cc16" stroke-width="3" opacity="0.95" />
<text x="2044" y="790" fill="#020617" font-size="13" text-anchor="middle" font-weight="bold">5</text>
<text x="2078" y="780" fill="#ffffff" font-size="17" font-weight="bold">Escalate</text>
<text x="2078" y="804" fill="#94a3b8" font-size="12">Prepare incident context and reviewer evidence</text>
<rect x="2412" y="766" width="96" height="26" rx="13" fill="#020617" stroke="#84cc16" stroke-width="1" />
<text x="2460" y="784" fill="#84cc16" font-size="10" text-anchor="middle" font-weight="bold">Ready</text>
<rect x="1990" y="990" width="550" height="300" rx="26" fill="#111827" stroke="#334155" stroke-width="2" />
<text x="2018" y="1032" fill="#ffffff" font-size="22" font-weight="bold">Correlation Summary</text>
<text x="2018" y="1060" fill="#cbd5e1" font-size="13">Signals, dependency, impact, and insight coverag</text>
<rect x="2018" y="1076" width="494" height="32" rx="16" fill="#020617" stroke="#334155" stroke-width="1" />
<text x="2040" y="1098" fill="#94a3b8" font-size="13" font-weight="bold">Signals</text>
<text x="2486" y="1098" fill="#ffffff" font-size="16" text-anchor="end" font-weight="bold">4</text>
<rect x="2018" y="1118" width="494" height="32" rx="16" fill="#020617" stroke="#334155" stroke-width="1" />
<text x="2040" y="1140" fill="#94a3b8" font-size="13" font-weight="bold">Correlation</text>
<text x="2486" y="1140" fill="#ffffff" font-size="16" text-anchor="end" font-weight="bold">4</text>
<rect x="2018" y="1160" width="494" height="32" rx="16" fill="#020617" stroke="#334155" stroke-width="1" />
<text x="2040" y="1182" fill="#94a3b8" font-size="13" font-weight="bold">Impact</text>
<text x="2486" y="1182" fill="#ffffff" font-size="16" text-anchor="end" font-weight="bold">4</text>
<rect x="2018" y="1202" width="494" height="32" rx="16" fill="#020617" stroke="#334155" stroke-width="1" />
<text x="2040" y="1224" fill="#94a3b8" font-size="13" font-weight="bold">Insights</text>
<text x="2486" y="1224" fill="#ffffff" font-size="16" text-anchor="end" font-weight="bold">4</text>
<rect x="60" y="1345" width="1880" height="320" rx="30" fill="#111827" stroke="#334155" stroke-width="2" />
<rect x="84" y="1367" width="1832" height="70" rx="22" fill="#020617" stroke="#7c3aed" stroke-width="2" opacity="0.96" />
<text x="108" y="1397" fill="#ffffff" font-size="24" font-weight="bold">Network Packet Loss Correlation Status</text>
<text x="108" y="1423" fill="#cbd5e1" font-size="13">Operational status and validation metrics</text>
<rect x="94" y="1463" width="430" height="150" rx="26" fill="#2e1065" stroke="#7c3aed" stroke-width="4" opacity="0.98" />
<text x="122" y="1505" fill="#94a3b8" font-size="13" font-weight="bold">Impact State</text>
<text x="122" y="1555" fill="#ffffff" font-size="30" font-weight="bold">CORRELATED</text>
<rect x="122" y="1583" width="320" height="32" rx="16" fill="#020617" stroke="#7c3aed" stroke-width="1" />
<text x="138" y="1604" fill="#cbd5e1" font-size="12" font-weight="bold">Signals mapped to service impact</text>
<rect x="560" y="1463" width="205" height="68" rx="20" fill="#0f172a" stroke="#fb923c" stroke-width="2" opacity="0.98" />
<rect x="574" y="1475" width="10" height="44" rx="5" fill="#fb923c" opacity="0.85" />
<text x="600" y="1493" fill="#94a3b8" font-size="11" font-weight="bold">Overall Impact</text>
<text x="600" y="1521" fill="#ffffff" font-size="16" font-weight="bold">Moderate</text>
<rect x="787" y="1463" width="205" height="68" rx="20" fill="#0f172a" stroke="#22c55e" stroke-width="2" opacity="0.98" />
<rect x="801" y="1475" width="10" height="44" rx="5" fill="#22c55e" opacity="0.85" />
<text x="827" y="1493" fill="#94a3b8" font-size="11" font-weight="bold">Resolver Health</text>
<text x="827" y="1521" fill="#ffffff" font-size="16" font-weight="bold">Normal</text>
<rect x="1014" y="1463" width="205" height="68" rx="20" fill="#0f172a" stroke="#fb923c" stroke-width="2" opacity="0.98" />
<rect x="1028" y="1475" width="10" height="44" rx="5" fill="#fb923c" opacity="0.85" />
<text x="1054" y="1493" fill="#94a3b8" font-size="11" font-weight="bold">Failure Pattern</text>
<text x="1054" y="1521" fill="#ffffff" font-size="16" font-weight="bold">Detected</text>
<rect x="560" y="1551" width="205" height="68" rx="20" fill="#0f172a" stroke="#fb923c" stroke-width="2" opacity="0.98" />
<rect x="574" y="1563" width="10" height="44" rx="5" fill="#fb923c" opacity="0.85" />
<text x="600" y="1581" fill="#94a3b8" font-size="11" font-weight="bold">Affected Services</text>
<text x="600" y="1609" fill="#ffffff" font-size="16" font-weight="bold">3</text>
<rect x="787" y="1551" width="205" height="68" rx="20" fill="#0f172a" stroke="#fb923c" stroke-width="2" opacity="0.98" />
<rect x="801" y="1563" width="10" height="44" rx="5" fill="#fb923c" opacity="0.85" />
<text x="827" y="1581" fill="#94a3b8" font-size="11" font-weight="bold">Risk Score</text>
<text x="827" y="1609" fill="#ffffff" font-size="16" font-weight="bold">P2</text>
<rect x="1014" y="1551" width="205" height="68" rx="20" fill="#0f172a" stroke="#facc15" stroke-width="2" opacity="0.98" />
<rect x="1028" y="1563" width="10" height="44" rx="5" fill="#facc15" opacity="0.85" />
<text x="1054" y="1581" fill="#94a3b8" font-size="11" font-weight="bold">Evidence</text>
<text x="1054" y="1609" fill="#ffffff" font-size="16" font-weight="bold">Prepared</text>
<rect x="1440" y="1463" width="455" height="150" rx="26" fill="#020617" stroke="#7c3aed" stroke-width="3" opacity="0.98" />
<text x="1468" y="1505" fill="#ffffff" font-size="19" font-weight="bold">Correlation Result</text>
<rect x="1468" y="1527" width="220" height="30" rx="15" fill="#0f172a" stroke="#7c3aed" stroke-width="1" />
<text x="1578" y="1547" fill="#cbd5e1" font-size="11" text-anchor="middle" font-weight="bold">DASHBOARD RESULT</text>
<text x="1468" y="1587" fill="#94a3b8" font-size="13">Signals are correlated with service impact and operational context.</text>
<rect x="1990" y="1320" width="550" height="330" rx="26" fill="#111827" stroke="#334155" stroke-width="2" />
<text x="2018" y="1362" fill="#ffffff" font-size="22" font-weight="bold">Legend</text>
<text x="2018" y="1390" fill="#94a3b8" font-size="13">Operational role and visual mapping</text>
<circle cx="2032" cy="1427" r="8" fill="#2563eb" />
<text x="2054" y="1432" fill="#94a3b8" font-size="13" font-weight="bold">Signal Domain</text>
<circle cx="2032" cy="1461" r="8" fill="#7c3aed" />
<text x="2054" y="1466" fill="#94a3b8" font-size="13" font-weight="bold">Correlation Platform</text>
<circle cx="2032" cy="1495" r="8" fill="#dc2626" />
<text x="2054" y="1500" fill="#94a3b8" font-size="13" font-weight="bold">Impact Analysis</text>
<circle cx="2032" cy="1529" r="8" fill="#16a34a" />
<text x="2054" y="1534" fill="#94a3b8" font-size="13" font-weight="bold">Operational Insight</text>
<circle cx="2032" cy="1563" r="8" fill="#7c3aed" />
<text x="2054" y="1568" fill="#94a3b8" font-size="13" font-weight="bold">Core Correlation Capability</text>
<circle cx="2032" cy="1597" r="8" fill="#eab308" />
<text x="2054" y="1602" fill="#94a3b8" font-size="13" font-weight="bold">Operational Decision Point</text>
</svg>