<svg xmlns="http://www.w3.org/2000/svg" width="1430" height="960">
<rect width="100%" height="100%" fill="#0f172a" />
<defs><marker id="arrow" markerWidth="10" markerHeight="10" refX="9" refY="3" orient="auto" markerUnits="strokeWidth"><path d="M0,0 L0,6 L9,3 z" fill="#94a3b8" /></marker></defs>
<text x="40" y="55" fill="#ffffff" font-size="32" font-weight="bold">kubernetes-cluster-health-monitoring</text>
<text x="40" y="92" fill="#cbd5e1" font-size="16">level-1-visibility</text>
<text x="40" y="185" fill="#94a3b8" font-size="18" font-weight="bold">Convergence / Governance</text>
<text x="40" y="365" fill="#94a3b8" font-size="18" font-weight="bold">Lifecycle Chain</text>
<text x="40" y="545" fill="#94a3b8" font-size="18" font-weight="bold">Aggregation / Rollup</text>
<line x1="40" y1="200" x2="1800" y2="200" stroke="#334155" stroke-width="1.5" />
<line x1="40" y1="380" x2="1800" y2="380" stroke="#334155" stroke-width="1.5" />
<line x1="40" y1="560" x2="1800" y2="560" stroke="#334155" stroke-width="1.5" />
<rect x="800" y="615" width="300" height="160" rx="18" fill="#1e293b" opacity="0.45" stroke="#475569" stroke-width="1.2" />
<text x="816" y="641" fill="#94a3b8" font-size="13" font-weight="bold">PLATFORM</text>
<rect x="800" y="615" width="300" height="160" rx="18" fill="#1e293b" opacity="0.45" stroke="#475569" stroke-width="1.2" />
<text x="816" y="641" fill="#94a3b8" font-size="13" font-weight="bold">OBSERVABILITY</text>
<line x1="950" y1="700" x2="950" y2="700" stroke="#94a3b8" stroke-width="2" stroke-dasharray="" marker-end="url(#arrow)" />
<text x="950.0" y="686.0" fill="#cbd5e1" font-size="12" text-anchor="middle">schedules workloads</text>
<line x1="950" y1="700" x2="950" y2="700" stroke="#94a3b8" stroke-width="2" stroke-dasharray="" marker-end="url(#arrow)" />
<text x="950.0" y="686.0" fill="#cbd5e1" font-size="12" text-anchor="middle">runs pods</text>
<line x1="950" y1="700" x2="950" y2="700" stroke="#94a3b8" stroke-width="2" stroke-dasharray="" marker-end="url(#arrow)" />
<text x="950.0" y="686.0" fill="#cbd5e1" font-size="12" text-anchor="middle">emits runtime signals</text>
<line x1="950" y1="700" x2="950" y2="700" stroke="#94a3b8" stroke-width="2" stroke-dasharray="" marker-end="url(#arrow)" />
<text x="950.0" y="686.0" fill="#cbd5e1" font-size="12" text-anchor="middle">publishes visibility</text>
<rect x="830" y="660" width="240" height="80" rx="14" fill="#334155" stroke="#e2e8f0" stroke-width="1.5" />
<text x="848" y="694" fill="#ffffff" font-size="15" font-weight="bold">Kubernetes Cluster</text>
<text x="848" y="718" fill="#e2e8f0" font-size="11">cluster</text>
<rect x="830" y="660" width="240" height="80" rx="14" fill="#334155" stroke="#e2e8f0" stroke-width="1.5" />
<text x="848" y="694" fill="#ffffff" font-size="15" font-weight="bold">Worker Node</text>
<text x="848" y="718" fill="#e2e8f0" font-size="11">compute</text>
<rect x="830" y="660" width="240" height="80" rx="14" fill="#334155" stroke="#e2e8f0" stroke-width="1.5" />
<text x="848" y="694" fill="#ffffff" font-size="15" font-weight="bold">Pod Workload</text>
<text x="848" y="718" fill="#e2e8f0" font-size="11">workload</text>
<rect x="830" y="660" width="240" height="80" rx="14" fill="#334155" stroke="#e2e8f0" stroke-width="1.5" stroke-dasharray="8 4" />
<text x="848" y="694" fill="#ffffff" font-size="15" font-weight="bold">Cluster Telemetry</text>
<text x="848" y="718" fill="#e2e8f0" font-size="11">telemetry</text>
<rect x="830" y="660" width="240" height="80" rx="14" fill="#334155" stroke="#e2e8f0" stroke-width="1.5" />
<text x="848" y="694" fill="#ffffff" font-size="15" font-weight="bold">Operations Dashboard</text>
<text x="848" y="718" fill="#e2e8f0" font-size="11">dashboard</text>
</svg>