<svg xmlns="http://www.w3.org/2000/svg" width="2040" height="800">
<rect width="100%" height="100%" fill="#0f172a" />
<defs><marker id="arrow" markerWidth="10" markerHeight="10" refX="9" refY="3" orient="auto" markerUnits="strokeWidth"><path d="M0,0 L0,6 L9,3 z" fill="#94a3b8" /></marker></defs>
<text x="40" y="55" fill="#ffffff" font-size="32" font-weight="bold">resource-rebalancing-automation</text>
<text x="40" y="92" fill="#cbd5e1" font-size="16">level-3-recovery</text>
<rect x="150" y="455" width="720" height="160" rx="18" fill="#1e293b" opacity="0.45" stroke="#475569" stroke-width="1.2" />
<text x="166" y="481" fill="#94a3b8" font-size="13" font-weight="bold">OPERATIONAL</text>
<rect x="990" y="455" width="300" height="160" rx="18" fill="#1e293b" opacity="0.45" stroke="#475569" stroke-width="1.2" />
<text x="1006" y="481" fill="#94a3b8" font-size="13" font-weight="bold">ANALYSIS</text>
<rect x="1410" y="455" width="300" height="160" rx="18" fill="#1e293b" opacity="0.45" stroke="#475569" stroke-width="1.2" />
<text x="1426" y="481" fill="#94a3b8" font-size="13" font-weight="bold">OBSERVABILITY</text>
<line x1="420" y1="540" x2="600" y2="540" stroke="#94a3b8" stroke-width="2" stroke-dasharray="" marker-end="url(#arrow)" />
<text x="510.0" y="526.0" fill="#cbd5e1" font-size="12" text-anchor="middle">emit telemetry</text>
<line x1="840" y1="540" x2="1020" y2="540" stroke="#94a3b8" stroke-width="2" stroke-dasharray="" marker-end="url(#arrow)" />
<text x="930.0" y="526.0" fill="#cbd5e1" font-size="12" text-anchor="middle">normalize signals</text>
<line x1="1260" y1="540" x2="1440" y2="540" stroke="#94a3b8" stroke-width="2" stroke-dasharray="" marker-end="url(#arrow)" />
<text x="1350.0" y="526.0" fill="#cbd5e1" font-size="12" text-anchor="middle">publish findings</text>
<rect x="180" y="500" width="240" height="80" rx="14" fill="#334155" stroke="#e2e8f0" stroke-width="1.5" />
<text x="198" y="534" fill="#ffffff" font-size="15" font-weight="bold">Telemetry Source</text>
<text x="198" y="558" fill="#e2e8f0" font-size="11">source</text>
<rect x="600" y="500" width="240" height="80" rx="14" fill="#334155" stroke="#e2e8f0" stroke-width="1.5" />
<text x="618" y="534" fill="#ffffff" font-size="15" font-weight="bold">Observability Pipeline</text>
<text x="618" y="558" fill="#e2e8f0" font-size="11">pipeline</text>
<polygon points="1050,500 1230,500 1260,540 1230,580 1050,580 1020,540" fill="#334155" stroke="#e2e8f0" stroke-width="1.5" />
<text x="1038" y="534" fill="#ffffff" font-size="15" font-weight="bold">Analysis Engine</text>
<text x="1038" y="558" fill="#e2e8f0" font-size="11">analysis</text>
<rect x="1440" y="500" width="240" height="80" rx="14" fill="#334155" stroke="#e2e8f0" stroke-width="1.5" />
<text x="1458" y="534" fill="#ffffff" font-size="15" font-weight="bold">Operations Dashboard</text>
<text x="1458" y="558" fill="#e2e8f0" font-size="11">dashboard</text>
</svg>